<?xml version="1.0" standalone="no"?><!DOCTYPE svg PUBLIC "-//W3C//DTD SVG 1.1//EN" "http://www.w3.org/Graphics/SVG/1.1/DTD/svg11.dtd"><svg t="1608240690002" class="icon" viewBox="0 0 1024 1024" version="1.1" xmlns="http://www.w3.org/2000/svg" p-id="3169" width="200" height="200" xmlns:xlink="http://www.w3.org/1999/xlink"><defs><style type="text/css"></style></defs><path d="M509.648593 63.108741c81.161481 0 156.634074 20.48 226.417777 61.44a451.470222 451.470222 0 0 1 165.622519 167.215407 448.891259 448.891259 0 0 1 60.871111 227.555556c0 81.161481-20.100741 156.823704-60.302222 226.986666a443.240296 443.240296 0 0 1-165.622519 166.153482 445.933037 445.933037 0 0 1-226.986666 60.871111c-81.161481 0-157.202963-20.48-228.124445-61.44A453.176889 453.176889 0 0 1 113.777778 745.244444a442.861037 442.861037 0 0 1-61.402074-227.024592c0-81.161481 20.48-156.823704 61.44-227.024593a453.176889 453.176889 0 0 1 167.74637-166.684444 448.739556 448.739556 0 0 1 228.124445-61.402074z" p-id="3170" fill="#007a5a"></path></svg>