<svg xmlns="http://www.w3.org/2000/svg" viewBox="0 0 1563 1048" width="1563" height="1048">
	<defs>
		<clipPath clipPathUnits="userSpaceOnUse" id="cp1">
			<path d="M0 0L1563 0L1563 1048L0 1048Z" />
		</clipPath>
	</defs>
	<style>
		tspan { white-space:pre }
		.shp0 { fill: #f3f5fb } 
		.shp1 { fill: #f0f3f9 } 
		.shp2 { fill: #e9eef7 } 
		.shp3 { fill: #e4eaf5 } 
		.shp4 { fill: #272d46 } 
		.shp5 { fill: #f1d9dd } 
		.shp6 { fill: #efd7dd } 
		.shp7 { fill: #81737c } 
		.shp8 { fill: #c9d7dc } 
		.shp9 { fill: #fec4ba } 
		.shp10 { fill: #ffffff } 
		.shp11 { fill: #ffc5cc } 
		.shp12 { fill: #6c7a89 } 
		.shp13 { fill: #ffa4b4 } 
		.shp14 { fill: #5888c8 } 
		.shp15 { fill: #f1d6da } 
		.shp16 { fill: #feb4b2 } 
		.shp17 { fill: #f7c4c6 } 
		.shp18 { fill: #fcbbb7 } 
		.shp19 { fill: #ffaea1 } 
		.shp20 { fill: #5485c6 } 
		.shp21 { fill: #3e73bd } 
		.shp22 { fill: #694853 } 
		.shp23 { fill: #ffb0a3 } 
		.shp24 { fill: #ff8471 } 
		.shp25 { fill: #ff8977 } 
		.shp26 { fill: #ffc8bc } 
		.shp27 { fill: #131316 } 
		.shp28 { fill: #f6ece2 } 
		.shp29 { fill: #988bc6 } 
		.shp30 { fill: #ffa99c } 
		.shp31 { fill: #a4a9d6 } 
		.shp32 { fill: #959ecd } 
		.shp33 { fill: #c1a9c4 } 
		.shp34 { fill: #b89fbb } 
		.shp35 { fill: #ffbbaf } 
		.shp36 { fill: #ae88b4 } 
		.shp37 { fill: #a898c7 } 
		.shp38 { fill: #a1bdc9 } 
		.shp39 { fill: #e3eff5 } 
		.shp40 { fill: #113665 } 
		.shp41 { fill: #a398cd } 
		.shp42 { fill: #ccc7e4 } 
		.shp43 { fill: #fbfcfe } 
		.shp44 { fill: #f9fafd } 
		.shp45 { fill: #bdd3ec } 
		.shp46 { fill: #d9d1e8 } 
		.shp47 { fill: #ffa3b2 } 
		.shp48 { fill: #e2e7f4 } 
		.shp49 { fill: #eceff8 } 
		.shp50 { fill: #92b2dc } 
		.shp51 { fill: #ffdde1 } 
		.shp52 { fill: #c0cde3 } 
		.shp53 { fill: #a4bfcc } 
		.shp54 { fill: #ffe1e5 } 
		.shp55 { fill: #c7d9ee } 
		.shp56 { fill: #e2ddee } 
	</style>
	<g id="Page 1" clip-path="url(#cp1)">
		<path id="Path 2" fill-rule="evenodd" class="shp0" d="M1380.08 916.54L1321.95 916.54C1331.28 898.36 1338.16 878.89 1342.3 858.85C1345.13 845.15 1346.19 831.93 1346.11 818.97L1347.2 818.97C1349.05 818.97 1350.56 817.47 1350.56 815.61L1350.56 766.74C1350.56 764.89 1349.05 763.38 1347.2 763.38L1340.36 763.38C1336.74 741.69 1332.39 719.86 1330.45 696.79C1328.72 676.24 1330.56 656.96 1334.09 638.11L1371.53 638.11C1374.91 638.11 1377.65 635.36 1377.65 631.99L1377.65 583.93C1377.65 577.84 1372.7 572.88 1366.6 572.88L1350.27 572.88C1352.35 564.86 1354.34 556.74 1356.09 548.47C1365.66 503.46 1362.47 452.49 1350.46 408.25C1334.07 347.86 1296.32 291.94 1241.93 257.85C1198.59 230.69 1147.84 219.05 1096.09 219.05C1046.64 219.05 996.26 229.67 950.52 247.53C911.3 262.83 873.32 283.2 831.33 288.35C823.79 289.27 816.29 289.69 808.8 289.69C755.41 289.69 703.12 268.26 650.8 254.74C636.31 251 621.56 247.87 606.69 245.45L606.69 151.25C606.69 147.3 602.69 144.09 597.77 144.09L404.83 144.09C399.91 144.09 395.92 147.3 395.92 151.25L395.92 214.33L284.54 214.33C280.36 214.33 276.97 217.87 276.97 222.23L276.97 370.09C276.97 373.85 279.49 377 282.87 377.8C268.44 406.91 260.76 439.1 261.86 472.56L226.32 472.72C226.97 471.29 227.53 469.94 228 468.67C243.41 427.07 194.58 349.74 199.39 305.85C209.99 208.98 298.87 135.97 407.26 116.64C430.07 112.58 453.28 110.68 476.66 110.68C551.28 110.68 627.4 130.02 695.87 159.86C761.94 188.64 825.85 227.9 898.41 233.62C904.94 234.14 911.43 234.37 917.91 234.37C960.8 234.37 1002.71 224.15 1044.93 218.03C1071.07 214.24 1098.02 212.24 1125.12 212.24C1218.28 212.24 1313 235.94 1380.77 292.29C1436.93 338.97 1469.35 404.29 1476.09 469.5C1481.03 517.26 1474.36 569.98 1454.12 613.81C1431.39 663.06 1372.61 706.64 1394.24 759.55C1421.32 825.78 1403.2 866.11 1380.08 916.54ZM240.33 916.54L167.3 916.54C130.16 866.77 103.87 836.32 101.07 738.39C98.64 653.41 183.59 545.31 216.76 490.32L217.86 730.44C217.88 734.38 221.07 737.56 225.01 737.56C225.02 737.56 225.03 737.56 225.04 737.56L226.9 737.55C211.73 791.63 212.24 864.86 240.33 916.54ZM1367.62 633.94L1334.89 633.94C1336.51 625.87 1338.42 617.87 1340.46 609.87L1367.62 633.94ZM1373.06 633.2L1341.87 605.55L1373.36 582.6C1373.44 583.03 1373.49 583.47 1373.49 583.93L1373.49 631.99C1373.49 632.45 1373.33 632.87 1373.06 633.2ZM1343.18 599.45C1345.16 592.02 1347.2 584.57 1349.18 577.04L1366.6 577.04C1368.43 577.04 1370.1 577.76 1371.33 578.92L1343.18 599.45Z" />
		<path id="Path 3" class="shp1" d="M132.54 514.43C118.82 514.43 105.28 502.25 98.35 489.04C87.53 468.43 95.94 443.19 117.11 432.66C125.63 428.43 137.31 426.03 148.93 426.03C166.18 426.03 183.28 431.3 189.74 443.62C200.56 464.23 167.96 481.83 154.64 501C147.97 510.61 140.23 514.43 132.54 514.43ZM1439.68 750.43C1435.71 750.43 1432.04 749.5 1429.07 747.35C1417.58 739 1430.39 721.02 1432.34 707.19C1433.84 696.58 1440.41 692.65 1447.94 692.65C1454.1 692.65 1460.9 695.29 1466.08 699.04C1477.58 707.39 1479.95 723.23 1471.37 734.42C1465.01 742.73 1451.12 750.43 1439.68 750.43ZM935.25 197.06C922.65 197.06 906.61 189.88 893.46 189.02C865.71 187.19 868.43 160.18 879.6 143.6C886.75 133 898.55 127.21 910.45 127.21C917.14 127.21 923.86 129.03 929.83 132.86C946.39 143.5 962.27 172.96 951.09 189.53C947.3 195.16 941.73 197.06 935.25 197.06Z" />
		<path id="Path 4" fill-rule="evenodd" class="shp2" d="M1321.95 916.54L1091.98 916.54C1103.83 889.82 1113.11 868.45 1099.24 833.36C1088.16 805.32 1118.27 782.23 1129.92 756.13C1140.29 732.9 1143.7 704.97 1141.17 679.66C1137.72 645.11 1121.11 610.49 1092.34 585.76C1057.62 555.9 1009.09 543.34 961.36 543.34C947.48 543.34 933.67 544.4 920.28 546.41C909.11 548.09 897.99 550.34 886.81 552.13L886.77 551.12L896.59 549.88C899.83 549.65 903.01 548.64 905.66 546.76C912.99 541.56 911.36 533.52 909.44 526.06L1080.76 526.33C1080.77 526.33 1080.77 526.33 1080.78 526.33C1086.74 526.33 1091.57 522.63 1091.57 518.05L1091.81 362.82C1091.82 358.24 1086.99 354.52 1081.03 354.51L847.24 354.15C847.23 354.15 847.23 354.15 847.22 354.15C841.26 354.15 836.43 357.85 836.43 362.42L836.4 378.12L836.23 489.18L823.02 504.83C814.13 520.78 814 536.96 814 536.96L813.01 547.84C803.36 544.66 793.92 540.65 784.57 536.31L781.43 529.84C784.75 518.08 784.14 503.27 774.53 488.82L756.34 457.33C760.64 447.12 767.84 425.61 763.06 404.76C758.73 385.83 741.66 372.99 722.76 372.99C720.53 372.99 718.27 373.17 716 373.54C693.81 348.41 670.65 340.28 649.97 340.28C619.96 340.28 595.2 357.39 586.24 364.46C580.91 360.45 574.57 357.62 567.52 356.46C565.17 356.08 562.84 355.89 560.54 355.89C540.2 355.89 522.3 370.46 518.92 391C515.56 411.51 527.84 430.95 547.05 437.49C537.41 441.25 528.69 447.79 522.61 456.48C511 473.05 509.48 496.48 518.86 514.09C520.75 517.64 523.1 521.18 524.31 524.97C503.79 542.64 489.94 566.06 487.09 592.94C485.56 607.44 494.69 628.81 499.89 648.19L463.15 709.97C458.64 717.55 462.2 727.35 470.51 730.28C469.88 731.71 469.26 733.14 468.65 734.54C452.13 762.11 435.96 794.44 436.72 822.14C438.16 874.03 451.62 890.17 470.65 916.54L240.33 916.54C212.24 864.86 211.73 791.63 226.9 737.55L374.33 736.88C378.28 736.86 381.47 733.64 381.45 729.69L380.85 596.86L447.14 596.43C449.71 596.41 451.95 595.05 453.21 593.02C455.03 591.7 456.19 589.56 456.18 587.15L455.26 447.35L455.27 447.35L455.07 416.67C455.05 414.17 453.01 412.15 450.51 412.15C450.5 412.15 450.49 412.15 450.48 412.15L447.88 412.16C447.88 412.16 447.88 412.16 447.88 412.16C447.86 412.16 447.85 412.16 447.83 412.16L354.64 412.77C354.62 412.77 354.59 412.77 354.56 412.77L351.92 412.79C349.49 412.81 347.53 414.75 347.48 417.16C346.31 418.45 345.6 420.17 345.61 422.05L345.94 472.17L261.86 472.56C260.76 439.1 268.44 406.91 282.87 377.8C283.41 377.92 283.97 377.99 284.54 377.99L448.5 377.99C452.69 377.99 456.08 374.45 456.08 370.09L456.08 292.54L597.77 292.54C602.69 292.54 606.69 289.33 606.69 285.37L606.69 245.45C621.56 247.87 636.31 251 650.8 254.74C703.12 268.26 755.41 289.69 808.8 289.69C816.29 289.69 823.79 289.27 831.33 288.35C873.32 283.2 911.3 262.83 950.52 247.53C996.26 229.67 1046.64 219.05 1096.09 219.05C1147.84 219.05 1198.59 230.69 1241.93 257.85C1296.32 291.94 1334.07 347.86 1350.46 408.25C1362.47 452.49 1365.66 503.46 1356.09 548.47C1354.34 556.74 1352.35 564.86 1350.27 572.88L1289.76 572.88C1285.07 572.88 1281.25 576.7 1281.25 581.39L1281.25 631.99C1281.25 635.36 1284 638.11 1287.38 638.11L1334.09 638.11C1330.56 656.96 1328.72 676.24 1330.45 696.79C1332.39 719.86 1336.74 741.69 1340.36 763.38L1180.83 763.38C1178.98 763.38 1177.47 764.89 1177.47 766.74L1177.47 812.27L1135.98 812.27C1134.12 812.27 1132.62 813.77 1132.62 815.63L1132.62 864.5C1132.62 866.36 1134.12 867.86 1135.98 867.86L1302.34 867.86C1304.2 867.86 1305.7 866.36 1305.7 864.5L1305.7 818.97L1346.11 818.97C1346.19 831.93 1345.13 845.15 1342.3 858.85C1338.16 878.89 1331.28 898.36 1321.95 916.54ZM1232.53 697.48L1191.33 734.14L1191.22 734.2C1192.11 734.57 1193.09 734.78 1194.11 734.78L1295.56 734.78C1296.14 734.78 1296.69 734.7 1297.23 734.58L1256.21 698.22L1248.99 703.49C1247.75 704.39 1246.3 704.84 1244.85 704.84C1243.39 704.84 1241.93 704.39 1240.69 703.47L1232.53 697.48ZM1302.15 664.73L1258.89 696.27L1300.06 732.77L1300.27 733.05C1301.93 731.69 1303 729.65 1303 727.34L1303 669.02C1303 667.5 1302.69 666.05 1302.15 664.73ZM1187.15 664.13C1186.84 665.05 1186.67 666.03 1186.67 667.05L1186.67 727.34C1186.67 729.33 1187.46 731.13 1188.74 732.46C1188.82 732.19 1188.95 731.93 1189.18 731.73L1229.87 695.52L1187.15 664.13ZM1195.96 657.76C1193 657.76 1190.38 659.15 1188.68 661.3L1188.86 661.38L1242.6 700.87C1243.27 701.36 1244.06 701.61 1244.85 701.61C1245.63 701.61 1246.41 701.37 1247.09 700.88L1300.49 661.94C1298.43 659.39 1295.28 657.76 1291.74 657.76L1195.96 657.76ZM1334.89 633.94L1290 633.94L1319.75 607.49L1325.69 611.85C1326.81 612.68 1328.14 613.1 1329.46 613.1C1330.78 613.1 1332.09 612.69 1333.22 611.86L1338.43 608.07L1340.46 609.87C1338.42 617.87 1336.51 625.87 1334.89 633.94ZM1285.46 632.41C1285.43 632.27 1285.42 632.13 1285.42 631.99L1285.42 582.26L1316.31 604.96L1285.46 632.41ZM1329.47 608.92C1329.01 608.92 1328.55 608.78 1328.16 608.49L1286.87 578.15C1287.64 577.46 1288.65 577.04 1289.76 577.04L1349.18 577.04C1347.2 584.57 1345.16 592.02 1343.18 599.45L1330.76 608.5C1330.37 608.78 1329.92 608.92 1329.47 608.92Z" />
		<path id="Path 5" fill-rule="evenodd" class="shp3" d="M1091.98 916.54L470.65 916.54C451.62 890.17 438.16 874.03 436.72 822.14C435.96 794.44 452.13 762.11 468.65 734.54C453.44 769.36 442.12 795.92 442.12 795.92C441.81 796.69 441.53 797.46 441.27 798.24C433.14 822.8 451.45 848.26 477.27 849.93L520.73 852.73L521.24 915.05L758.88 915.05L766.75 793.82L776.88 777.8C777.14 778.73 777.28 779.23 777.28 779.23L816.37 826.43L848.42 776.62C855.34 775.93 862.18 773.44 868.22 769.01L967.22 646.31L967.22 646.31L982.74 627.07L992.46 626.24L981.73 629.92C979.72 630.61 978.23 632.32 977.81 634.41C977.76 634.66 977.74 634.91 977.74 635.15C977.74 636.76 978.77 638.23 980.36 638.73C984.51 640.02 992.11 642.02 999.64 642.02C1006.42 642.02 1013.15 640.41 1017.28 635.21C1019.09 632.93 1019.84 630.69 1019.84 628.54C1019.84 626.63 1019.24 624.79 1018.26 623.05C1018.28 623.04 1018.3 623.02 1018.32 623.01C1018.75 622.7 1018.87 622.13 1018.64 621.68C1020.17 621.61 1022.93 620.36 1025.37 613.31C1025.6 612.64 1025.74 611.96 1025.79 611.29C1025.83 611.29 1025.87 611.29 1025.91 611.29C1026.04 611.29 1026.18 611.27 1026.31 611.21C1026.84 610.99 1027.09 610.38 1026.87 609.85C1026.68 609.4 1026.5 608.95 1026.32 608.5L1027.89 606.9C1030.72 604.02 1032.25 600.18 1032.25 596.31C1032.24 594.11 1031.73 591.89 1030.68 589.85C1026.67 582.1 1017.45 577.74 1017.45 577.74L1040.15 580.28C1041.69 580.45 1044.16 580.8 1046.73 580.8C1051.13 580.8 1055.85 579.77 1056.84 575.02C1056.84 574.97 1056.84 574.93 1056.84 574.87C1056.85 566.58 1044.67 564.62 1039.96 564.04L1024 562.06L990.41 561.47C990.1 561.47 989.8 561.47 989.5 561.47C975.7 561.47 962.7 566.99 953.16 576.45L891.71 629.91L888.79 592.48L886.81 552.13C897.99 550.34 909.11 548.09 920.28 546.41C933.67 544.4 947.48 543.34 961.36 543.34C1009.09 543.34 1057.62 555.9 1092.34 585.76C1121.11 610.49 1137.72 645.11 1141.17 679.66C1143.7 704.97 1140.29 732.9 1129.92 756.13C1118.27 782.23 1088.16 805.32 1099.24 833.36C1113.11 868.45 1103.83 889.82 1091.98 916.54ZM499.89 648.19C494.69 628.81 485.56 607.44 487.09 592.94C489.94 566.06 503.79 542.64 524.31 524.97C524.9 526.82 525.22 528.72 525.08 530.72C524.74 535.65 521.53 539.71 519.84 544.18C517.92 549.26 516.79 554.71 516.33 560.1C515.05 574.88 519.06 589.54 527.05 602.31C526.72 602.91 526.4 603.51 526.09 604.13L499.89 648.19ZM812.8 615.9L785.63 538.5L784.57 536.31C793.92 540.65 803.36 544.66 813.01 547.84L811.58 563.67L812.8 615.9ZM1007.69 613.02C1007.49 612.88 1007.28 612.75 1007.07 612.62C1007.22 612.71 1007.38 612.81 1007.52 612.9C1007.58 612.94 1007.64 612.98 1007.69 613.02ZM1015.23 596.24C1014.82 595.95 1014.43 595.67 1014.05 595.41C1014.45 595.67 1014.84 595.95 1015.23 596.24ZM519.87 747.66L471.1 730.49L519.87 747.66Z" />
		<path id="Path 6" class="shp4" d="M774.53 488.82L756.34 457.33C760.64 447.12 767.84 425.61 763.06 404.76C758.21 383.59 737.44 370.04 716 373.54C661.61 311.93 601.37 352.52 586.24 364.46C580.91 360.45 574.57 357.62 567.52 356.46C544.43 352.68 522.68 368.14 518.92 391C515.56 411.51 527.84 430.95 547.05 437.49C537.41 441.25 528.69 447.79 522.61 456.48C511 473.05 509.48 496.48 518.86 514.09C521.68 519.37 525.5 524.65 525.08 530.72C524.74 535.65 521.53 539.71 519.84 544.18C517.92 549.26 516.79 554.71 516.33 560.1C513.41 593.92 538.18 627.17 574.92 638.39C600.41 646.17 626.11 642.38 645.46 630.46C664.11 618.97 684.35 609.66 705.07 601.21C713.04 605.52 719.29 608.53 719.29 608.53L744.46 605.93C757.81 606.16 748.79 586.27 754.25 568.54C756.54 565.14 758.51 561.51 760.12 557.67C762.06 555.39 764.43 553.24 767.42 551.31C779.17 543.72 792.39 515.68 774.53 488.82Z" />
		<path id="Path 7" class="shp5" d="M784.57 536.31C783.04 535.6 781.52 534.89 779.99 534.16C780.53 532.77 781.01 531.33 781.43 529.84L784.57 536.31Z" />
		<path id="Path 8" class="shp6" d="M813.95 664.83L809.21 662.79L803.93 660.5C783.59 625.34 765.65 605.62 752.3 594.59C752.47 587.36 751.44 577.66 754.25 568.54C756.54 565.14 758.51 561.51 760.12 557.67C762.06 555.39 764.43 553.24 767.42 551.31C772.05 548.32 776.9 542.16 779.99 534.16C781.52 534.89 783.04 535.6 784.57 536.31L785.63 538.5L812.8 615.9L813.95 664.83Z" />
		<path id="Path 9" class="shp7" d="M752.3 594.59C747.61 590.71 743.49 587.91 740.02 585.89L737.94 577.25L724.88 552.29L730.69 553.72C731.15 553.84 731.6 553.89 732.05 553.89C734.62 553.89 736.96 552.15 737.6 549.55L747.59 509.17C745.99 508.23 742.65 506.25 738.37 503.61L739.8 486.83L761.05 498.68C771.94 507.88 776.5 519.66 776.5 519.66L781.43 529.84C781.01 531.33 780.53 532.77 779.99 534.16C776.9 542.16 772.05 548.32 767.42 551.31C764.43 553.24 762.06 555.39 760.12 557.67C758.51 561.51 756.54 565.14 754.25 568.54C751.44 577.66 752.47 587.36 752.3 594.59ZM715.51 552.51C714.82 552.51 714.14 552.45 713.46 552.35C716.18 549.89 718.69 547.19 720.94 544.28L720.67 545.37C720.14 547.52 720.92 549.7 722.49 551.06L719.74 551.88C718.36 552.28 716.93 552.51 715.51 552.51Z" />
		<path id="Path 10" class="shp8" d="M732.26 498.51L720.67 545.37C719.92 548.41 721.79 551.52 724.84 552.28L730.69 553.72C733.74 554.48 736.85 552.6 737.6 549.55L747.59 509.17C745.78 508.11 741.76 505.73 736.68 502.57C734.69 501.33 733.28 499.91 732.26 498.51ZM754.5 457.47L748.64 456.03C745.6 455.27 742.49 457.15 741.73 460.2L735.08 487.11C736.46 487.01 738.17 487.25 740.31 488.04C743.79 489.32 747.79 491.39 751.47 493.49L758.66 464.38C759.42 461.34 757.54 458.23 754.5 457.47Z" />
		<path id="Path 11" class="shp9" d="M908.35 521.77C906.05 512.21 905.07 502.34 901.72 493.04C900.49 489.63 898.89 486.23 896.14 483.87C892.67 480.88 887.85 479.99 883.27 479.93C881.31 479.9 879.27 480.01 877.2 480.12C870.77 480.45 864.07 480.78 858.6 477.16L858.4 477.03C853.94 474.18 848.02 475.21 844.6 479.26L823.02 504.83C814.13 520.78 814 536.96 814 536.96L811.58 563.67L813.95 664.83L803.93 660.5C760.28 585.06 727.74 580.72 727.74 580.72C730.69 613.36 777.28 779.23 777.28 779.23L816.37 826.43L897.24 700.77L888.79 592.48L886.77 551.12L896.59 549.88C899.83 549.65 903.01 548.64 905.66 546.76C914.43 540.53 910.38 530.25 908.35 521.77Z" />
		<path id="Path 12" class="shp10" d="M1080.76 526.33L846.98 525.97C841.01 525.96 836.18 522.24 836.19 517.66L836.4 378.12L836.43 362.42C836.43 357.84 841.27 354.14 847.24 354.15L1081.03 354.51C1086.99 354.52 1091.82 358.24 1091.81 362.82L1091.57 518.05C1091.57 522.63 1086.72 526.34 1080.76 526.33Z" />
		<path id="Path 13" class="shp11" d="M836.39 386.83L836.43 362.42C836.43 357.84 841.28 354.14 847.24 354.15L1081.03 354.51C1086.99 354.52 1091.82 358.24 1091.81 362.82L1091.78 386.16" />
		<path id="Path 14" fill-rule="evenodd" class="shp10" d="M854.85 376.44L854.84 376.44C852.05 376.44 849.79 374.17 849.79 371.38C849.79 368.59 852.06 366.33 854.85 366.33L854.85 366.33C857.64 366.33 859.91 368.61 859.9 371.39C859.9 372.74 859.37 374.01 858.41 374.97C857.46 375.92 856.2 376.44 854.85 376.44ZM854.85 368.41C853.21 368.41 851.87 369.74 851.87 371.38C851.87 373.02 853.2 374.36 854.84 374.36L854.85 374.36C855.64 374.36 856.38 374.05 856.94 373.49C857.51 372.93 857.82 372.18 857.82 371.39C857.82 369.75 856.49 368.41 854.85 368.41L854.85 368.41ZM869.91 376.46L869.9 376.46C867.11 376.46 864.85 374.19 864.85 371.4C864.86 368.61 867.13 366.35 869.91 366.35L869.92 366.35C872.7 366.36 874.97 368.63 874.96 371.41L874.96 371.42C874.96 374.2 872.69 376.46 869.91 376.46ZM869.91 368.44C868.27 368.44 866.94 369.76 866.94 371.4C866.93 373.04 868.27 374.38 869.9 374.38L869.91 374.38C871.55 374.38 872.88 373.05 872.88 371.41C872.88 369.77 871.55 368.44 869.91 368.44L869.91 368.44ZM884.69 376.49L884.68 376.49C881.89 376.48 879.63 374.21 879.63 371.42C879.64 368.64 881.9 366.37 884.69 366.37C886.06 366.39 887.31 366.9 888.27 367.86C889.22 368.82 889.75 370.09 889.74 371.44C889.74 374.22 887.47 376.49 884.69 376.49ZM884.69 368.46C883.05 368.46 881.72 369.79 881.71 371.43C881.71 373.06 883.04 374.4 884.68 374.4L884.69 374.4C886.33 374.4 887.66 373.07 887.66 371.44C887.66 370.64 887.35 369.89 886.79 369.33C886.23 368.77 885.49 368.46 884.69 368.46L884.69 368.46Z" />
		<path id="Path 15" class="shp12" d="M1057.23 430.03L1057.23 430.03L954.83 429.87C954.26 429.87 953.79 429.4 953.79 428.83C953.79 428.25 954.26 427.79 954.84 427.79L954.84 427.79L1057.24 427.95C1057.81 427.95 1058.27 428.41 1058.27 428.99C1058.27 429.56 1057.81 430.03 1057.23 430.03ZM1005.96 474.96L1005.96 474.96L954.76 474.88C954.19 474.88 953.72 474.42 953.72 473.84C953.72 473.27 954.19 472.8 954.76 472.8L954.77 472.8L1005.96 472.88C1006.54 472.88 1007 473.35 1007 473.93C1007 474.5 1006.54 474.96 1005.96 474.96ZM984.56 443.43L984.56 443.43L954.8 443.37C954.22 443.37 953.76 442.91 953.76 442.33C953.76 441.76 954.23 441.29 954.8 441.29L954.8 441.29L984.56 441.35C985.14 441.35 985.6 441.82 985.6 442.39C985.6 442.97 985.13 443.43 984.56 443.43ZM1057.19 443.53L991.73 443.47C991.15 443.47 990.69 443.01 990.69 442.43C990.69 441.85 991.15 441.39 991.73 441.39L1057.19 441.45C1057.77 441.45 1058.24 441.91 1058.24 442.49C1058.24 443.07 1057.77 443.53 1057.19 443.53ZM1012.68 459.41L1012.68 459.41L954.8 459.35C954.22 459.35 953.76 458.88 953.76 458.3C953.76 457.73 954.22 457.26 954.8 457.26L954.8 457.26L1012.69 457.32C1013.26 457.32 1013.73 457.79 1013.73 458.37C1013.73 458.94 1013.26 459.41 1012.68 459.41ZM1057.19 459.51L1057.19 459.51L1018.97 459.45C1018.39 459.45 1017.93 458.98 1017.93 458.4C1017.93 457.83 1018.39 457.36 1018.97 457.36L1018.97 457.36L1057.2 457.42C1057.77 457.42 1058.24 457.89 1058.24 458.47C1058.24 459.04 1057.77 459.51 1057.19 459.51Z" />
		<path id="Path 16" class="shp13" d="M938.7 466.58L863.7 466.58L863.7 410.05L938.7 410.05L938.7 466.58Z" />
		<path id="Path 17" class="shp14" d="M926.85 475.3C926.85 489.46 915.37 500.95 901.2 500.95C887.04 500.95 875.56 489.46 875.56 475.3C875.56 461.14 887.04 449.66 901.2 449.66C915.37 449.66 926.85 461.14 926.85 475.3Z" />
		<path id="Path 18" class="shp10" d="M914.23 476.34L888.18 476.34C887.6 476.34 887.14 475.88 887.14 475.3C887.14 474.73 887.6 474.26 888.18 474.26L914.23 474.26C914.8 474.26 915.27 474.73 915.27 475.3C915.27 475.88 914.8 476.34 914.23 476.34ZM901.2 489.37C900.63 489.37 900.16 488.9 900.16 488.33L900.16 462.27C900.16 461.7 900.63 461.23 901.2 461.23C901.78 461.23 902.24 461.7 902.24 462.27L902.24 488.33C902.24 488.9 901.78 489.37 901.2 489.37Z" />
		<path id="Path 19" class="shp9" d="M855.33 542.11C861.04 516.01 845.43 503.14 845.43 503.14C845.43 503.14 850.23 497.25 856.8 488.69C861.93 481.99 861.21 475.53 860.66 473.05C860.49 472.27 860.14 471.57 859.6 470.99C857.89 469.12 853.27 465.83 845.57 472.51C841.53 476.02 837.12 480.99 833.31 485.66C824.58 496.38 818.22 508.91 815.34 522.44C814.61 525.88 814.12 529.35 814.06 532.6C813.81 547.22 855.33 542.11 855.33 542.11Z" />
		<path id="Path 20" class="shp15" d="M848.42 776.62L897.24 700.77L891.71 629.91L953.16 576.45C962.7 566.99 975.7 561.47 989.5 561.47C989.8 561.47 990.1 561.47 990.41 561.47L1024 562.06L1039.96 564.04C1044.67 564.62 1056.85 566.58 1056.84 574.87C1056.84 574.93 1056.84 574.97 1056.84 575.02C1055.85 579.77 1051.13 580.8 1046.73 580.8C1044.16 580.8 1041.69 580.45 1040.15 580.28L1017.45 577.74C1017.45 577.74 1026.67 582.1 1030.68 589.85C1031.73 591.89 1032.24 594.11 1032.25 596.31C1032.25 600.18 1030.72 604.02 1027.89 606.9L1026.32 608.5C1026.05 607.84 1025.78 607.18 1025.49 606.53C1024.91 605.47 1024.45 604.36 1023.77 603.36C1022.56 601.28 1021.02 599.4 1019.34 597.68C1017.61 596 1015.66 594.54 1013.55 593.4C1011.41 592.26 1009.18 591.4 1006.71 591.05C1006.68 591.04 1006.65 591.04 1006.62 591.04C1006.33 591.04 1006.07 591.25 1006.02 591.55C1005.96 591.88 1006.19 592.2 1006.52 592.26L1006.58 592.27C1008.73 592.64 1010.9 593.53 1012.85 594.66C1013.25 594.9 1013.66 595.15 1014.05 595.41C1014.43 595.67 1014.82 595.95 1015.23 596.24C1016.27 597.03 1017.25 597.9 1018.16 598.84C1019.68 600.51 1021.07 602.31 1022.16 604.3C1022.77 605.26 1023.17 606.34 1023.69 607.34C1024.12 608.39 1024.49 609.47 1024.9 610.53L1024.94 610.63L1024.95 610.65C1025.1 611.01 1025.43 611.24 1025.79 611.29C1025.74 611.96 1025.6 612.64 1025.37 613.31C1022.93 620.36 1020.17 621.61 1018.64 621.68C1018.62 621.64 1018.59 621.6 1018.56 621.56C1017.87 620.58 1017.2 619.58 1016.47 618.62C1015.68 617.72 1014.98 616.74 1014.1 615.91C1012.45 614.15 1010.53 612.66 1008.5 611.34C1006.44 610.09 1004.21 609.1 1001.87 608.45C999.99 607.94 998.09 607.61 996.1 607.61C995.61 607.61 995.12 607.63 994.62 607.67C994.19 607.7 993.86 608.08 993.89 608.51C993.92 608.94 994.27 609.26 994.69 609.26C994.7 609.26 994.72 609.26 994.74 609.26L994.82 609.25C995.13 609.23 995.45 609.22 995.76 609.22C997.62 609.22 999.59 609.56 1001.41 610.1C1003.39 610.69 1005.3 611.55 1007.07 612.62C1007.28 612.75 1007.49 612.88 1007.69 613.02C1009.49 614.25 1011.21 615.63 1012.68 617.26C1013.49 618.05 1014.14 619 1014.87 619.86C1015.54 620.77 1016.15 621.73 1016.8 622.67L1016.86 622.76L1016.87 622.76C1017.07 623.05 1017.39 623.2 1017.72 623.2C1017.9 623.2 1018.09 623.15 1018.26 623.05C1019.24 624.79 1019.84 626.63 1019.84 628.54C1019.84 630.69 1019.09 632.93 1017.28 635.21C1013.15 640.41 1006.42 642.02 999.64 642.02C992.11 642.02 984.51 640.02 980.36 638.73C978.77 638.23 977.74 636.76 977.74 635.15C977.74 634.91 977.76 634.66 977.81 634.41C978.23 632.32 979.72 630.61 981.73 629.92L992.46 626.24L982.74 627.07L962.45 628.79C961.76 628.85 961.07 628.88 960.39 628.88C957.02 628.88 953.75 628.18 950.74 626.9L967.22 646.31L868.22 769.01C862.18 773.44 855.34 775.93 848.42 776.62Z" />
		<path id="Path 21" class="shp9" d="M844.39 776.83C831.16 776.83 818.15 770.35 810.39 758.32L829.34 692.27L849.25 666.84L891.71 629.91L897.24 700.77L848.42 776.62C847.08 776.76 845.73 776.83 844.39 776.83Z" />
		<path id="Path 22" class="shp16" d="M1017.72 623.2C1017.39 623.2 1017.07 623.05 1016.87 622.76L1016.86 622.76L1016.8 622.67C1016.15 621.73 1015.54 620.77 1014.87 619.86C1014.14 619 1013.49 618.05 1012.68 617.26C1011.21 615.63 1009.49 614.25 1007.69 613.02C1007.64 612.98 1007.58 612.94 1007.52 612.9C1007.38 612.81 1007.22 612.71 1007.07 612.62C1005.3 611.55 1003.39 610.69 1001.41 610.1C999.59 609.56 997.62 609.22 995.76 609.22C995.45 609.22 995.13 609.23 994.82 609.25L994.74 609.26C994.72 609.26 994.7 609.26 994.69 609.26C994.27 609.26 993.92 608.94 993.89 608.51C993.86 608.08 994.19 607.7 994.62 607.67C995.12 607.63 995.61 607.61 996.1 607.61C998.09 607.61 999.99 607.94 1001.87 608.45C1004.21 609.1 1006.44 610.09 1008.5 611.34C1010.53 612.66 1012.45 614.15 1014.1 615.91C1014.98 616.74 1015.68 617.72 1016.47 618.62C1017.2 619.58 1017.87 620.58 1018.56 621.56C1018.59 621.6 1018.62 621.64 1018.64 621.68C1018.87 622.13 1018.75 622.7 1018.32 623.01C1018.3 623.02 1018.28 623.04 1018.26 623.05C1018.09 623.15 1017.9 623.2 1017.72 623.2ZM1025.91 611.29C1025.87 611.29 1025.83 611.29 1025.79 611.29C1025.43 611.24 1025.1 611.01 1024.95 610.65L1024.94 610.63L1024.9 610.53C1024.49 609.47 1024.12 608.39 1023.69 607.34C1023.17 606.34 1022.77 605.26 1022.16 604.3C1021.07 602.31 1019.68 600.51 1018.16 598.84C1017.25 597.9 1016.27 597.03 1015.23 596.24C1014.84 595.95 1014.45 595.67 1014.05 595.41C1013.66 595.15 1013.25 594.9 1012.85 594.66C1010.9 593.53 1008.73 592.64 1006.58 592.27L1006.52 592.26C1006.19 592.2 1005.96 591.88 1006.02 591.55C1006.07 591.25 1006.33 591.04 1006.62 591.04C1006.65 591.04 1006.68 591.04 1006.71 591.05C1009.18 591.4 1011.41 592.26 1013.55 593.4C1015.66 594.54 1017.61 596 1019.34 597.68C1021.02 599.4 1022.56 601.28 1023.77 603.36C1024.45 604.36 1024.91 605.47 1025.49 606.53C1025.78 607.18 1026.05 607.84 1026.32 608.5C1026.5 608.95 1026.68 609.4 1026.87 609.85C1027.09 610.38 1026.84 610.99 1026.31 611.21C1026.18 611.27 1026.04 611.29 1025.91 611.29Z" />
		<path id="Path 23" class="shp17" d="M967.22 646.31L950.74 626.9C953.75 628.18 957.02 628.88 960.39 628.88C961.07 628.88 961.76 628.85 962.45 628.79L982.74 627.07L967.22 646.31" />
		<path id="Path 24" class="shp18" d="M813.95 664.83L809.21 662.79L813.95 664.83Z" />
		<path id="Path 25" class="shp19" d="M814.71 720.6L806.17 661.47L809.21 662.79L813.95 664.83L815.39 665.45L814.71 720.6Z" />
		<path id="Path 26" class="shp20" d="M727.74 580.72C727.74 580.72 760.28 585.05 803.93 660.5C803.93 660.5 757.93 708.53 753.9 693.28C741.8 647.44 729.23 597.17 727.74 580.72Z" />
		<path id="Path 27" class="shp21" d="M773.69 688L756.86 641.99L781.25 681.91L773.69 688Z" />
		<path id="Path 28" class="shp14" d="M785.4 720.05L756.86 641.99C756.42 587.93 730.54 571.25 681.46 571.64L574.6 572.51C562.7 572.6 551.7 576.77 542.67 583.8C538.03 587.41 533.92 591.79 530.48 596.75L530.47 596.75L530.45 596.8C528.84 599.11 527.39 601.56 526.09 604.13L463.15 709.97C458.64 717.55 462.2 727.35 470.51 730.28L519.87 747.66L521.24 915.05L758.88 915.05L766.75 793.82L780 772.87C789.77 757.4 791.8 737.55 785.4 720.05Z" />
		<path id="Path 29" class="shp9" d="M713.34 415.99C712.54 414.4 711.88 412.82 711.31 411.25C701.39 432.58 684.7 445.59 641.79 448.84L610.88 490.34L614.7 459.03C608.09 457.53 602.63 455.03 598.1 451.82C590.24 454.61 584.28 461.78 583.53 470.59C582.51 482.59 591.49 493.25 603.49 494.27L607.63 494.63L607.63 578.43C607.63 598.54 624.09 615 644.21 615L651 615C671.12 615 687.58 598.54 687.58 578.43L687.58 566.33C701.08 562.82 712.91 554.83 721.22 543.91C730.63 534.12 736.87 521.17 738.11 506.59L742.74 452.39C742.95 449.88 743.01 447.4 742.92 444.95C732.71 434.34 718.33 425.92 713.34 415.99Z" />
		<path id="Path 30" class="shp14" d="M657.72 640.73L657.72 623.68C657.72 596.25 635.48 574.01 608.04 574.01L604.96 574.01L576.47 642.5L658.35 640.73L658.35 623.68C658.35 596.25 680.6 574.01 708.03 574.01L657.72 640.73Z" />
		<path id="Path 31" class="shp21" d="M670.51 614.15C670.51 615.59 669.34 616.76 667.9 616.76C666.46 616.76 665.29 615.59 665.29 614.15C665.29 612.71 666.46 611.54 667.9 611.54C669.34 611.54 670.51 612.71 670.51 614.15ZM670.51 634.46C670.51 635.9 669.34 637.07 667.9 637.07C666.46 637.07 665.29 635.9 665.29 634.46C665.29 633.02 666.46 631.85 667.9 631.85C669.34 631.85 670.51 633.02 670.51 634.46Z" />
		<path id="Path 32" class="shp4" d="M610.88 490.34L610.88 490.33L610.88 490.34Z" />
		<path id="Path 33" class="shp22" d="M610.88 490.33L610.88 490.29L614.7 459.03L610.88 490.33ZM614.7 459.03C614.52 458.99 614.35 458.95 614.17 458.91C614.17 458.9 614.17 458.89 614.18 458.89L614.7 459.03Z" />
		<path id="Path 34" class="shp23" d="M610.88 490.29L612.83 467.39C613.08 464.49 613.54 461.67 614.17 458.91C614.35 458.95 614.52 458.99 614.7 459.03L610.88 490.29Z" />
		<path id="Path 35" class="shp22" d="M687.58 567.91L687.58 566.33C692.88 564.95 697.92 562.88 702.59 560.22C698.15 562.76 693.38 564.76 688.36 566.13C688.12 566.73 687.86 567.33 687.58 567.91Z" />
		<path id="Path 36" class="shp23" d="M661.95 584.02C660.24 584.02 658.51 583.86 656.78 583.55C642.9 581 633.25 568.79 633.45 555.13C617.59 542.7 608.11 522.79 609.95 501.22L610.88 490.34L616.77 482.42L615.6 496.14C612.72 529.97 637.81 559.74 671.64 562.62C673.41 562.77 675.17 562.85 676.93 562.85C694.06 562.85 709.8 555.73 721.05 544.1C716.02 550.64 709.74 556.13 702.59 560.22C697.92 562.88 692.88 564.95 687.58 566.33L687.58 567.91C682.88 577.66 672.91 584.02 661.95 584.02Z" />
		<path id="Path 37" class="shp24" d="M597.62 477.72C597.22 477.72 596.83 477.48 596.66 477.08C596.44 476.55 596.7 475.94 597.23 475.72L605.16 472.46L599 462.27C598.7 461.78 598.86 461.14 599.35 460.85C599.84 460.55 600.49 460.7 600.78 461.2L607.58 472.42C607.73 472.68 607.77 473 607.67 473.29C607.58 473.58 607.36 473.81 607.08 473.93L598.02 477.65L597.62 477.72ZM683.04 546.03C682.7 546.03 682.36 545.86 682.16 545.56C678.92 540.58 673.07 541.98 672.83 542.04C672.26 542.18 671.7 541.84 671.56 541.29C671.42 540.73 671.75 540.16 672.31 540.02C672.38 540 679.84 538.17 683.91 544.42C684.23 544.9 684.09 545.55 683.61 545.86C683.43 545.97 683.23 546.03 683.04 546.03Z" />
		<path id="Path 38" class="shp25" d="M663.74 489.9C663.74 489.9 671.78 499.74 681.69 506.07C691.6 512.4 675.21 526.25 659.7 517.48C644.19 508.7 655.92 484.14 663.74 489.9Z" />
		<path id="Path 39" class="shp26" d="M661.33 511.64L660.81 511.44C660.49 511.15 660.46 510.65 660.75 510.33C663.24 507.57 663.01 503.3 660.25 500.81C659.93 500.52 659.91 500.03 660.2 499.71C660.49 499.39 660.98 499.36 661.3 499.65C664.7 502.72 664.97 507.98 661.91 511.38C661.76 511.55 661.54 511.64 661.33 511.64Z" />
		<path id="Path 40" class="shp4" d="M670.23 453.7C671.96 454.44 674.21 454.21 676.39 454.12C678.59 453.97 680.8 453.89 682.72 453.88C684.65 453.87 686.86 453.93 689.06 454.05C691.24 454.13 693.5 454.33 695.21 453.57C696.86 452.86 697.52 450.86 695.55 448.4C693.7 446.02 688.88 443.44 682.51 443.45C676.14 443.5 671.42 446.13 669.67 448.54C667.81 451.01 668.55 453.01 670.23 453.7ZM735.53 455.19C734.35 455.55 732.92 455.25 731.51 455.03C730.1 454.79 728.68 454.57 727.44 454.43C726.19 454.29 724.76 454.18 723.33 454.1C721.91 454 720.44 453.97 719.39 453.36C718.37 452.79 718.09 451.44 719.53 450C720.89 448.58 724.19 447.25 728.31 447.71C732.42 448.19 735.29 450.22 736.25 451.9C737.28 453.63 736.66 454.87 735.53 455.19Z" />
		<path id="Path 41" class="shp27" d="M682.62 474.87C682.29 477.04 680.27 478.52 678.11 478.19C675.95 477.86 674.46 475.85 674.79 473.68C675.12 471.52 677.14 470.04 679.3 470.36C681.46 470.69 682.95 472.71 682.62 474.87ZM727.88 478.8C727.55 480.96 725.53 482.44 723.37 482.12C721.21 481.79 719.72 479.77 720.05 477.61C720.38 475.44 722.4 473.96 724.56 474.29C726.72 474.61 728.21 476.63 727.88 478.8Z" />
		<path id="Path 42" class="shp24" d="M683.82 479.91L683.29 479.76C679.43 477.46 673.42 479.11 673.35 479.13C672.8 479.29 672.22 478.96 672.07 478.41C671.91 477.86 672.23 477.28 672.79 477.12C673.07 477.05 679.72 475.21 684.35 477.97C684.85 478.26 685.01 478.9 684.72 479.4C684.52 479.72 684.17 479.91 683.82 479.91ZM728.31 484.09L727.78 483.94C723.91 481.63 717.9 483.3 717.85 483.31C717.29 483.47 716.71 483.15 716.56 482.59C716.4 482.04 716.72 481.46 717.28 481.31C717.56 481.23 724.21 479.39 728.85 482.15C729.34 482.45 729.5 483.09 729.21 483.58C729.01 483.91 728.67 484.09 728.31 484.09Z" />
		<path id="Path 43" class="shp28" d="M608.33 485.79C607.83 488.54 605.2 490.35 602.46 489.85C599.71 489.35 597.9 486.72 598.4 483.98C598.9 481.24 601.53 479.42 604.28 479.92C607.01 480.42 608.83 483.05 608.33 485.79Z" />
		<path id="Path 44" fill-rule="evenodd" class="shp10" d="M673.49 497.32C672.16 497.32 670.82 497.2 669.48 496.96C657.55 494.77 649.63 483.29 651.81 471.37C654 459.44 665.49 451.51 677.4 453.7C683.18 454.76 688.2 458 691.54 462.84C694.87 467.67 696.13 473.51 695.07 479.29C694.01 485.07 690.77 490.09 685.93 493.42C682.22 495.99 677.91 497.32 673.49 497.32ZM673.43 457.5C665 457.5 657.48 463.53 655.91 472.12C654.14 481.78 660.56 491.09 670.23 492.86C674.92 493.72 679.65 492.7 683.56 489.99C687.48 487.29 690.11 483.22 690.97 478.54C691.83 473.86 690.81 469.12 688.11 465.2C685.4 461.29 681.33 458.65 676.65 457.8C675.57 457.6 674.49 457.5 673.43 457.5ZM727 500.91C725.67 500.91 724.33 500.79 722.99 500.54C711.07 498.36 703.14 486.88 705.32 474.95C707.51 463.03 719 455.1 730.91 457.29C742.84 459.47 750.76 470.95 748.58 482.88C747.53 488.65 744.28 493.67 739.45 497.01C735.73 499.58 731.42 500.91 727 500.91ZM726.95 461.09C718.51 461.09 711 467.12 709.42 475.7C707.65 485.37 714.08 494.67 723.74 496.45C728.43 497.31 733.16 496.29 737.08 493.58C741 490.88 743.63 486.81 744.49 482.13C746.25 472.46 739.83 463.16 730.16 461.38C729.09 461.19 728.01 461.09 726.95 461.09Z" />
		<path id="Path 45" class="shp9" d="M692.86 500.45C696.61 501.1 699.54 502.18 703.24 500.29C706.68 498.54 709.75 494.51 709.11 490.49C708.83 488.71 707.48 487.27 705.75 486.76L702.23 485.73L702.53 464.66" />
		<path id="Path 46" class="shp24" d="M698.89 502.39C697.38 502.39 695.92 502.1 694.42 501.81C693.86 501.7 693.28 501.58 692.68 501.48C692.12 501.39 691.74 500.85 691.83 500.28C691.93 499.71 692.46 499.33 693.04 499.43C693.65 499.53 694.24 499.65 694.82 499.76C697.7 500.33 699.98 500.79 702.77 499.37C705.77 497.84 708.65 494.26 708.08 490.65C707.87 489.3 706.84 488.17 705.45 487.76L701.17 486.51L701.49 464.64C701.5 464.07 702.01 463.59 702.55 463.61C703.12 463.62 703.58 464.1 703.58 464.67L703.28 484.95L706.04 485.76C708.19 486.4 709.8 488.19 710.14 490.32C710.86 494.9 707.37 499.36 703.71 501.22C701.99 502.1 700.41 502.39 698.89 502.39Z" />
		<path id="Path 47" class="shp10" d="M705.07 481.14C699.96 475.79 694.6 479.66 694.37 479.83L691.89 476.49C694.83 474.31 701.99 471.88 708.08 478.26L705.07 481.14Z" />
		<path id="Path 48" class="shp21" d="M519.87 747.66L554.52 758.66C556.95 759.43 559.52 758.05 560.23 755.61L572.18 714.08L570.07 763.48C569.9 767.47 566.01 770.23 562.19 769.08L519.87 756.39L519.87 747.66Z" />
		<path id="Path 49" fill-rule="evenodd" class="shp9" d="M734.28 890.68C727.25 893.77 722.37 883.8 720.34 880.11L709.25 860.15C709.25 860.15 711.12 870.59 706.8 878.39C703.83 883.77 697.6 886.51 691.53 885.55L689.25 885.18L689.74 884.41C692.8 879.65 694.08 873.97 693.36 868.36L692.53 861.93C692.58 862.33 695.32 884.14 684.84 887.2C674.27 890.29 673.6 885.48 673.6 885.48C673.6 885.48 679.49 873.97 673.96 864.7C673.96 864.7 679.83 894.23 662.3 893.29C648.32 892.54 640.61 873.07 638.06 865.23C637.47 863.4 638.35 861.43 640.1 860.65C640.31 860.55 640.52 860.52 640.73 860.46L477.27 849.93C451.45 848.26 433.14 822.8 441.27 798.24C441.53 797.46 441.81 796.69 442.12 795.92C442.12 795.92 454.37 767.17 470.51 730.28L544.23 756.23C545.27 758.25 545.85 759.43 545.85 759.43L539.21 774.62L676.67 807.75C688.76 810.75 699.59 818.06 706.86 828.68L725.83 856.4L733.46 870.56C735.73 874.76 741.24 885.94 734.28 890.68ZM692.53 861.92L692.53 861.93C692.53 861.92 692.53 861.92 692.53 861.92ZM655.24 867.86L649.16 860.67L648.99 860.99L645.08 860.74C645.4 860.89 645.73 861.03 646.03 861.24L655.24 867.86Z" />
		<path id="Path 50" class="shp24" d="M671.64 858.87C673.27 860.81 674.36 862.95 675.2 865.23C676.03 867.51 676.51 869.9 676.68 872.31C676.78 874.73 676.68 877.15 676.2 879.52C676.03 880.72 675.64 881.86 675.36 883.03C675 884.17 674.57 885.29 674.18 886.43C673.99 886.97 673.4 887.26 672.86 887.07C672.31 886.88 672.02 886.29 672.21 885.74L672.22 885.74L672.25 885.63C672.64 884.56 673.07 883.51 673.43 882.44C673.7 881.34 674.1 880.26 674.27 879.14C674.76 876.93 674.89 874.67 674.84 872.41C674.72 870.17 674.31 867.94 673.58 865.8C672.87 863.69 671.81 861.6 670.46 859.94L670.41 859.88C670.13 859.54 670.18 859.04 670.52 858.76C670.86 858.49 671.36 858.54 671.64 858.87ZM692.19 859.09C693.33 861.31 693.93 863.63 694.23 866.03C694.53 868.42 694.47 870.85 694.1 873.23C693.66 875.6 693.02 877.94 692.03 880.14C691.61 881.26 690.97 882.29 690.44 883.37C689.84 884.4 689.17 885.4 688.53 886.42C688.23 886.91 687.59 887.05 687.1 886.75C686.61 886.45 686.46 885.8 686.77 885.32L686.78 885.3L686.84 885.21C687.47 884.26 688.13 883.33 688.73 882.37C689.26 881.37 689.9 880.42 690.33 879.37C691.32 877.33 691.98 875.15 692.47 872.95C692.88 870.72 693.01 868.44 692.8 866.19C692.59 863.95 692.06 861.66 691.11 859.69L691.09 859.64C690.94 859.34 691.07 858.97 691.38 858.82C691.68 858.68 692.04 858.8 692.19 859.09Z" />
		<path id="Path 51" class="shp29" d="M649.44 861.02L647.57 860.9L648.99 860.99L649.16 860.67L649.44 861.02Z" />
		<path id="Path 52" class="shp30" d="M648.99 860.99L647.57 860.9L624.79 859.4L631.59 834.46C632.34 838.32 634.01 842.02 636.6 845.21L649.16 860.67L648.99 860.99Z" />
		<path id="Path 53" class="shp31" d="M675.68 797.72C664.56 797.72 652.79 787.59 647.88 782.84C647.13 782.11 646.74 781.13 646.74 780.15C646.74 779.34 647.01 778.52 647.54 777.83C648.68 776.37 650.42 775.53 652.25 775.53C652.51 775.53 652.78 775.55 653.05 775.59L664.29 777.11L655.24 773.49L636.34 765.92C632.52 764.4 629.26 761.98 626.72 758.98L632.73 783.72L655.24 773.49L613.4 792.5L539.21 774.62L539.21 774.62L544.01 763.63L562.19 769.08C562.78 769.26 563.38 769.35 563.96 769.35C567.13 769.35 569.92 766.85 570.07 763.48L571.26 735.51L651.52 714.98C656.73 713.28 662.16 712.42 667.6 712.42C675.79 712.42 684.01 714.37 691.53 718.31L721.29 733.92L734.67 742.85C738.01 745.08 745.69 750.6 745.7 756.73C745.7 757.88 745.43 759.06 744.81 760.24C743.38 762.04 741.57 762.72 739.64 762.72C735.15 762.72 730.01 759.05 727.54 757.44L708.4 744.99C708.4 744.99 714.69 753.02 714.78 761.74C714.78 761.79 714.78 761.84 714.78 761.89C714.79 768.17 710.59 773.7 704.64 775.73L702.52 776.46C702.57 775.75 702.63 775.03 702.66 774.32C702.62 773.12 702.7 771.92 702.55 770.72C702.39 768.31 701.86 765.95 701.14 763.65C700.35 761.37 699.26 759.2 697.88 757.23C696.49 755.25 694.88 753.48 692.83 752.06C692.72 751.98 692.6 751.95 692.48 751.95C692.29 751.95 692.1 752.03 691.98 752.2C691.78 752.47 691.84 752.85 692.11 753.05L692.16 753.09C693.91 754.39 695.46 756.16 696.69 758.04C696.96 758.45 697.21 758.86 697.45 759.29C697.66 759.66 697.86 760.05 698.07 760.46C698.67 761.65 699.16 762.89 699.56 764.16C700.17 766.34 700.61 768.57 700.68 770.84C700.8 771.97 700.67 773.11 700.68 774.24C700.6 775.37 700.45 776.5 700.34 777.63L700.33 777.74L700.33 777.76C700.3 778.15 700.49 778.51 700.79 778.71C700.45 779.29 700.02 779.83 699.51 780.33C695.61 784.13 692.94 785.09 691.24 785.09C690.61 785.09 690.12 784.95 689.74 784.79C689.74 784.74 689.73 784.69 689.72 784.64C689.54 783.46 689.4 782.26 689.18 781.09C688.87 779.92 688.69 778.73 688.27 777.59C687.59 775.28 686.54 773.09 685.32 771C684.04 768.95 682.49 767.06 680.7 765.44C678.88 763.81 676.92 762.44 674.56 761.49C674.47 761.45 674.37 761.43 674.27 761.43C673.96 761.43 673.66 761.61 673.53 761.91C673.36 762.32 673.55 762.79 673.96 762.96L674.03 762.99C675.99 763.82 677.91 765.17 679.54 766.7C681.05 768.12 682.36 769.74 683.46 771.49C683.59 771.7 683.72 771.91 683.84 772.13C684.9 774.04 685.81 776.05 686.4 778.17C686.77 779.23 686.92 780.37 687.19 781.47C687.38 782.59 687.49 783.72 687.65 784.84L687.67 784.95L687.67 784.96C687.75 785.48 688.19 785.84 688.7 785.84C688.73 785.84 688.75 785.84 688.78 785.84C688.79 786.09 688.8 786.34 688.8 786.59C688.8 790.53 687.14 794.09 682.44 796.27C680.26 797.28 677.98 797.72 675.68 797.72ZM555.89 758.88C555.44 758.88 554.98 758.81 554.52 758.66L521.62 748.21L565.6 736.96L560.23 755.61C559.66 757.59 557.85 758.88 555.89 758.88Z" />
		<path id="Path 54" class="shp32" d="M563.96 769.35C563.38 769.35 562.78 769.26 562.19 769.08L544.01 763.63L545.85 759.43C545.85 759.43 545.27 758.25 544.23 756.23L521.52 748.24L521.62 748.21L554.52 758.66C554.98 758.81 555.44 758.88 555.89 758.88C557.85 758.88 559.66 757.59 560.23 755.61L565.6 736.96L571.26 735.51L570.07 763.48C569.92 766.85 567.13 769.35 563.96 769.35Z" />
		<path id="Path 55" class="shp9" d="M482.44 849.5C462.19 849.5 444.56 834.25 442.31 813.42L488.89 762.9L518.1 749.11L521.52 748.24L544.23 756.23C545.27 758.25 545.85 759.43 545.85 759.43L503.68 766.19L539.21 774.62L539.21 774.62L613.4 792.5L489.19 848.93C486.92 849.32 484.66 849.5 482.44 849.5Z" />
		<path id="Path 56" class="shp33" d="M539.21 774.62L539.21 774.62L544.01 763.63L539.21 774.62Z" />
		<path id="Path 57" class="shp34" d="M544.01 763.63L545.85 759.43L544.01 763.63Z" />
		<path id="Path 58" class="shp35" d="M539.21 774.62L503.68 766.19L545.85 759.43L544.01 763.63L539.21 774.62" />
		<path id="Path 59" class="shp36" d="M688.7 785.84C688.19 785.84 687.75 785.48 687.67 784.96L687.67 784.95L687.65 784.84C687.49 783.72 687.38 782.59 687.19 781.47C686.92 780.37 686.77 779.23 686.4 778.17C685.81 776.05 684.9 774.04 683.84 772.13C683.81 772.07 683.78 772.01 683.75 771.95C683.65 771.8 683.56 771.65 683.46 771.49C682.36 769.74 681.05 768.12 679.54 766.7C677.91 765.17 675.99 763.82 674.03 762.99L673.96 762.96C673.55 762.79 673.36 762.32 673.53 761.91C673.66 761.61 673.96 761.43 674.27 761.43C674.37 761.43 674.47 761.45 674.56 761.49C676.92 762.44 678.88 763.81 680.7 765.44C682.49 767.06 684.04 768.95 685.32 771C686.54 773.09 687.59 775.28 688.27 777.59C688.69 778.73 688.87 779.92 689.18 781.09C689.4 782.26 689.54 783.46 689.72 784.64C689.73 784.69 689.74 784.74 689.74 784.79C689.75 785.3 689.38 785.75 688.86 785.83C688.83 785.83 688.81 785.84 688.78 785.84C688.75 785.84 688.73 785.84 688.7 785.84ZM701.36 778.88C701.34 778.88 701.31 778.88 701.29 778.87C701.11 778.86 700.94 778.8 700.79 778.71C700.49 778.51 700.3 778.15 700.33 777.76L700.33 777.74L700.34 777.63C700.45 776.5 700.6 775.37 700.68 774.24C700.67 773.11 700.8 771.97 700.68 770.84C700.61 768.57 700.17 766.34 699.56 764.16C699.16 762.89 698.67 761.65 698.07 760.46C697.88 760.06 697.67 759.67 697.45 759.29C697.21 758.86 696.96 758.45 696.69 758.04C695.46 756.16 693.91 754.39 692.16 753.09L692.11 753.05C691.84 752.85 691.78 752.47 691.98 752.2C692.1 752.03 692.29 751.95 692.48 751.95C692.6 751.95 692.72 751.98 692.83 752.06C694.88 753.48 696.49 755.25 697.88 757.23C699.26 759.2 700.35 761.37 701.14 763.65C701.86 765.95 702.39 768.31 702.55 770.72C702.7 771.92 702.62 773.12 702.66 774.32C702.63 775.03 702.57 775.75 702.52 776.46C702.48 776.94 702.44 777.42 702.4 777.91C702.36 778.46 701.91 778.88 701.36 778.88Z" />
		<path id="Path 60" class="shp37" d="M632.73 783.72L626.72 758.98C629.26 761.98 632.52 764.4 636.34 765.92L655.24 773.49L632.73 783.72Z" />
		<path id="Path 61" class="shp38" d="M1084.46 679.98L850.71 679.98C842.35 679.98 835.02 685.56 832.8 693.62L778.95 888.82L772.3 888.82L622.34 888.82C619.49 888.82 617.79 891.99 619.37 894.36L631.73 912.91L772.3 912.91L1039.38 912.91L1102.38 704.1C1106.01 692.09 1097.01 679.98 1084.46 679.98Z" />
		<path id="Path 62" class="shp8" d="M1059.46 913.4L792.38 913.4L852.88 694.1C855.1 686.04 862.43 680.46 870.79 680.46L1104.54 680.46C1117.09 680.46 1126.09 692.57 1122.46 704.58L1059.46 913.4Z" />
		<path id="Path 63" fill-rule="evenodd" class="shp10" d="M985.88 805.2L985.88 808.92C985.88 822.25 974.96 833.16 961.63 833.16L957.91 833.16C944.58 833.16 933.67 822.25 933.67 808.92L933.67 805.2C933.67 791.87 944.58 780.96 957.91 780.96L961.63 780.96C974.96 780.96 985.88 791.87 985.88 805.2ZM957.91 785.89C947.26 785.89 938.6 794.55 938.6 805.2L938.6 808.92C938.6 819.57 947.26 828.24 957.91 828.24L961.63 828.24C972.28 828.24 980.95 819.57 980.95 808.92L980.95 805.2C980.95 794.55 972.28 785.89 961.63 785.89L957.91 785.89ZM376.04 820.42C374.32 820.42 372.92 819.02 372.92 817.29L372.92 811.99C372.92 809.64 369.5 807.01 364.61 807.01L361.75 807.01C354.57 807.01 348.95 802.63 348.95 797.03L348.95 794.07C348.95 788.56 354.48 784.24 361.53 784.24L365.71 784.24C369.96 784.24 372.92 782.03 372.92 780.04C372.92 776.59 368.21 773.66 362.63 773.66L343.62 773.66C341.9 773.66 340.5 772.26 340.5 770.54C340.5 768.81 341.9 767.41 343.62 767.41L362.63 767.41C371.9 767.41 379.17 772.96 379.17 780.04C379.17 785.9 373.25 790.49 365.71 790.49L361.53 790.49C357.91 790.49 355.2 792.38 355.2 794.07L355.2 797.03C355.2 798.79 358 800.76 361.75 800.76L364.61 800.76C372.77 800.76 379.17 805.7 379.17 811.99L379.17 817.29C379.17 819.02 377.77 820.42 376.04 820.42ZM407.13 821.24C405.4 821.24 404 819.84 404 818.11L404 814.91C404 814.3 402.53 813.13 400.21 813.13L398.48 813.13C393.45 813.13 389.51 809.94 389.51 805.86L389.51 804.07C389.51 800.04 393.39 796.89 398.35 796.89L400.88 796.89C402.86 796.89 404 795.9 404 795.58C404 794.51 402.06 792.95 399.01 792.95L387.52 792.95C385.79 792.95 384.39 791.55 384.39 789.83C384.39 788.1 385.79 786.7 387.52 786.7L399.01 786.7C405.32 786.7 410.25 790.6 410.25 795.58C410.25 799.82 406.14 803.14 400.88 803.14L398.35 803.14C396.77 803.14 395.85 803.84 395.75 804.12L395.76 805.86C395.84 806.12 396.82 806.88 398.48 806.88L400.21 806.88C405.84 806.88 410.25 810.41 410.25 814.91L410.25 818.11C410.25 819.84 408.85 821.24 407.13 821.24Z" />
		<path id="Path 64" class="shp21" d="M345.11 896.86L327.06 896.86C310.76 896.86 297.5 883.6 297.5 867.31L297.5 848.21C297.5 836.84 306.75 827.59 318.11 827.59L340.91 827.59L340.91 842.17L318.11 842.17C314.79 842.17 312.08 844.88 312.08 848.21L312.08 867.31C312.08 875.56 318.8 882.28 327.06 882.28L345.11 882.28L345.11 896.86ZM403.32 903.46L354.51 903.46C342.08 903.46 332.01 893.38 332.01 880.95L332.01 897.44C332.01 909.87 342.08 919.94 354.51 919.94L403.32 919.94C415.75 919.94 425.82 909.87 425.82 897.44L425.82 880.95C425.82 893.38 415.75 903.46 403.32 903.46Z" />
		<path id="Path 65" class="shp14" d="M412.44 809.64L349.1 809.64C339.66 809.64 332.01 817.3 332.01 826.74L332.01 880.95C332.01 893.38 342.08 903.46 354.51 903.46L403.32 903.46C415.75 903.46 425.82 893.38 425.82 880.95L425.82 823.02C425.82 815.63 419.83 809.64 412.44 809.64Z" />
		<path id="Path 66" class="shp4" d="M1423.23 921.66L139.27 921.66L139.27 912.76L1423.23 912.76L1423.23 921.66Z" />
		<path id="Path 67" class="shp14" d="M963.68 193.52L750.05 193.52C738.7 193.52 729.49 202.82 729.49 214.3L729.49 295.71L729.49 328.17C729.49 331.63 733.66 333.33 736.04 330.84L756.43 309.44C758.24 307.54 760.74 306.46 763.36 306.46L963.68 306.22C973.49 306.22 981.44 298.19 981.44 288.27L981.44 211.47C981.44 201.55 973.49 193.52 963.68 193.52Z" />
		<path id="Path 68" class="shp10" d="M874.9 236.14L783.89 236.14C782.74 236.14 781.81 235.2 781.81 234.05C781.81 232.9 782.74 231.97 783.89 231.97L874.9 231.97C876.05 231.97 876.98 232.9 876.98 234.05C876.98 235.2 876.05 236.14 874.9 236.14ZM934.9 236.14L884.29 236.14C883.14 236.14 882.21 235.2 882.21 234.05C882.21 232.9 883.14 231.97 884.29 231.97L934.9 231.97C936.06 231.97 936.99 232.9 936.99 234.05C936.99 235.2 936.06 236.14 934.9 236.14ZM838.25 254.62L783.89 254.62C782.74 254.62 781.81 253.69 781.81 252.54C781.81 251.39 782.74 250.46 783.89 250.46L838.25 250.46C839.4 250.46 840.34 251.39 840.34 252.54C840.34 253.69 839.4 254.62 838.25 254.62ZM933.12 254.62L851.24 254.62C850.09 254.62 849.16 253.69 849.16 252.54C849.16 251.39 850.09 250.46 851.24 250.46L933.12 250.46C934.27 250.46 935.2 251.39 935.2 252.54C935.2 253.69 934.27 254.62 933.12 254.62ZM870.49 273.11L783.89 273.11C782.74 273.11 781.81 272.18 781.81 271.03C781.81 269.88 782.74 268.95 783.89 268.95L870.49 268.95C871.64 268.95 872.57 269.88 872.57 271.03C872.57 272.18 871.64 273.11 870.49 273.11Z" />
		<path id="Path 69" class="shp11" d="M701.52 207.36L754.15 207.36C755.83 207.36 757.43 208.05 758.6 209.26L771.69 222.85C773.22 224.43 775.89 223.35 775.89 221.15L775.89 200.54L775.89 148.83C775.89 141.54 769.98 135.63 762.69 135.63L699.43 135.63C693.5 135.63 688.69 140.44 688.69 146.38L688.69 194.53C688.69 201.62 694.44 207.36 701.52 207.36Z" />
		<path id="Path 70" class="shp10" d="M748.13 173.09C748.13 175.58 750.15 177.6 752.64 177.6C755.12 177.6 757.14 175.58 757.14 173.09C757.14 170.6 755.12 168.59 752.64 168.59C750.15 168.59 748.13 170.6 748.13 173.09ZM727.01 173.09C727.01 175.58 729.03 177.6 731.52 177.6C734 177.6 736.02 175.58 736.02 173.09C736.02 170.6 734 168.59 731.52 168.59C729.03 168.59 727.01 170.6 727.01 173.09ZM705.4 173.09C705.4 175.58 707.41 177.6 709.9 177.6C712.39 177.6 714.41 175.58 714.41 173.09C714.41 170.6 712.39 168.59 709.9 168.59C707.41 168.59 705.4 170.6 705.4 173.09Z" />
		<path id="Path 71" class="shp11" d="M1003.64 204.42C1003.64 219.98 991.03 232.59 975.48 232.59C959.92 232.59 947.31 219.98 947.31 204.42C947.31 188.87 959.92 176.26 975.48 176.26C991.03 176.26 1003.64 188.87 1003.64 204.42Z" />
		<path id="Path 72" class="shp10" d="M978.7 217.58L974.82 217.58L974.82 194.18L970.89 196.59L970.89 192.58L974.82 189.96L978.7 189.96L978.7 217.58ZM1223.4 367.43L1045.25 367.43C1042.11 367.43 1039.56 364.89 1039.56 361.75L1039.56 262.85C1039.56 259.71 1042.11 257.16 1045.25 257.16L1223.4 257.16C1226.54 257.16 1229.09 259.71 1229.09 262.85L1229.09 361.75C1229.09 364.89 1226.54 367.43 1223.4 367.43Z" />
		<path id="Path 73" class="shp13" d="M1039.56 271.06L1039.56 262.85C1039.56 259.71 1042.11 257.16 1045.25 257.16L1223.4 257.16C1226.54 257.16 1229.09 259.71 1229.09 262.85L1229.09 270.34L1039.56 271.06Z" />
		<path id="Path 74" fill-rule="evenodd" class="shp39" d="M1047.37 266.71C1046.2 266.71 1045.24 265.75 1045.24 264.57C1045.24 263.39 1046.2 262.44 1047.37 262.44C1048.55 262.44 1049.51 263.39 1049.51 264.57C1049.51 265.75 1048.55 266.71 1047.37 266.71ZM1047.37 263.16C1046.59 263.16 1045.96 263.79 1045.96 264.57C1045.96 265.35 1046.59 265.98 1047.37 265.98C1048.15 265.98 1048.79 265.35 1048.79 264.57C1048.79 263.79 1048.15 263.16 1047.37 263.16ZM1053.8 266.71C1052.63 266.71 1051.67 265.75 1051.67 264.57C1051.67 263.39 1052.63 262.44 1053.8 262.44C1054.98 262.44 1055.94 263.39 1055.94 264.57C1055.94 265.75 1054.98 266.71 1053.8 266.71ZM1053.8 263.16C1053.03 263.16 1052.39 263.79 1052.39 264.57C1052.39 265.35 1053.03 265.98 1053.8 265.98C1054.58 265.98 1055.22 265.35 1055.22 264.57C1055.22 263.79 1054.58 263.16 1053.8 263.16ZM1059.91 266.71C1058.73 266.71 1057.77 265.75 1057.77 264.57C1057.77 263.39 1058.73 262.44 1059.91 262.44C1061.09 262.44 1062.05 263.39 1062.05 264.57C1062.05 265.75 1061.09 266.71 1059.91 266.71ZM1059.91 263.16C1059.13 263.16 1058.5 263.79 1058.5 264.57C1058.5 265.35 1059.13 265.98 1059.91 265.98C1060.69 265.98 1061.33 265.35 1061.33 264.57C1061.33 263.79 1060.69 263.16 1059.91 263.16Z" />
		<path id="Path 75" class="shp40" d="M1206.15 302.51L1115.39 302.51C1115.02 302.51 1114.73 302.18 1114.73 301.79C1114.73 301.38 1115.02 301.06 1115.39 301.06L1206.15 301.06C1206.51 301.06 1206.81 301.38 1206.81 301.79C1206.81 302.18 1206.51 302.51 1206.15 302.51ZM1206.15 326.44L1115.39 326.44C1115.02 326.44 1114.73 326.12 1114.73 325.72C1114.73 325.32 1115.02 325 1115.39 325L1206.15 325C1206.51 325 1206.81 325.32 1206.81 325.72C1206.81 326.12 1206.51 326.44 1206.15 326.44ZM1155.29 313.68L1115.39 313.68C1115.02 313.68 1114.73 313.35 1114.73 312.95C1114.73 312.55 1115.02 312.23 1115.39 312.23L1155.29 312.23C1155.66 312.23 1155.96 312.55 1155.96 312.95C1155.96 313.35 1155.66 313.68 1155.29 313.68ZM1206.15 313.68L1166.25 313.68C1165.88 313.68 1165.58 313.35 1165.58 312.95C1165.58 312.55 1165.88 312.23 1166.25 312.23L1206.15 312.23C1206.51 312.23 1206.81 312.55 1206.81 312.95C1206.81 313.35 1206.51 313.68 1206.15 313.68ZM1155.29 338.95L1115.39 338.95C1115.02 338.95 1114.73 338.63 1114.73 338.23C1114.73 337.83 1115.02 337.51 1115.39 337.51L1155.29 337.51C1155.66 337.51 1155.96 337.83 1155.96 338.23C1155.96 338.63 1155.66 338.95 1155.29 338.95ZM1206.15 338.95L1166.25 338.95C1165.88 338.95 1165.58 338.63 1165.58 338.23C1165.58 337.83 1165.88 337.51 1166.25 337.51L1206.15 337.51C1206.51 337.51 1206.81 337.83 1206.81 338.23C1206.81 338.63 1206.51 338.95 1206.15 338.95Z" />
		<path id="Path 76" class="shp14" d="M1070.33 350.24L1057.79 350.24L1057.79 312.74L1070.33 312.74L1070.33 350.24Z" />
		<path id="Path 77" class="shp13" d="M1085.77 350.24L1073.23 350.24L1073.23 296.09L1085.77 296.09L1085.77 350.24Z" />
		<path id="Path 78" class="shp41" d="M1101.58 350.24L1089.04 350.24L1089.04 283.7L1101.58 283.7L1101.58 350.24Z" />
		<path id="Path 79" class="shp14" d="M1267.5 385.93L1232.94 385.93C1231.84 385.93 1230.79 386.38 1230.02 387.18L1221.42 396.1C1220.42 397.14 1218.67 396.43 1218.67 394.99L1218.67 381.45L1218.67 347.5C1218.67 342.72 1222.55 338.84 1227.33 338.84L1268.87 338.84C1272.77 338.84 1275.92 342 1275.92 345.89L1275.92 377.51C1275.92 382.16 1272.15 385.93 1267.5 385.93Z" />
		<path id="Path 80" class="shp10" d="M1236.9 363.43C1236.9 365.07 1235.57 366.39 1233.94 366.39C1232.3 366.39 1230.98 365.07 1230.98 363.43C1230.98 361.8 1232.3 360.47 1233.94 360.47C1235.57 360.47 1236.9 361.8 1236.9 363.43ZM1250.76 363.43C1250.76 365.07 1249.44 366.39 1247.8 366.39C1246.17 366.39 1244.84 365.07 1244.84 363.43C1244.84 361.8 1246.17 360.47 1247.8 360.47C1249.44 360.47 1250.76 361.8 1250.76 363.43ZM1264.95 363.43C1264.95 365.07 1263.63 366.39 1261.99 366.39C1260.36 366.39 1259.04 365.07 1259.04 363.43C1259.04 361.8 1260.36 360.47 1261.99 360.47C1263.63 360.47 1264.95 361.8 1264.95 363.43Z" />
		<path id="Path 81" class="shp13" d="M1203.62 421.71L1173.04 421.71L1173.04 398.38L1203.62 398.38L1203.62 421.71Z" />
		<path id="Path 82" class="shp14" d="M1173.04 421.71L1142.45 421.71L1142.45 398.38L1173.04 398.38L1173.04 421.71Z" />
		<path id="Path 83" class="shp13" d="M1111.86 421.71L1081.28 421.71L1081.28 398.38L1111.86 398.38L1111.86 421.71Z" />
		<path id="Path 84" class="shp14" d="M1081.28 421.71L1050.7 421.71L1050.7 398.38L1081.28 398.38L1081.28 421.71Z" />
		<path id="Path 85" class="shp41" d="M1142.45 421.71L1111.86 421.71L1111.86 398.38L1142.45 398.38L1142.45 421.71Z" />
		<path id="Path 86" class="shp42" d="M1244.85 701.61C1244.06 701.61 1243.27 701.36 1242.6 700.87L1188.86 661.38L1188.68 661.3C1190.38 659.15 1193 657.76 1195.96 657.76L1291.74 657.76C1295.28 657.76 1298.43 659.39 1300.49 661.94L1247.09 700.88C1246.41 701.37 1245.63 701.61 1244.85 701.61ZM1295.56 734.78L1194.11 734.78C1193.09 734.78 1192.11 734.57 1191.22 734.2L1191.33 734.14L1232.53 697.48L1240.69 703.47C1241.93 704.39 1243.39 704.84 1244.85 704.84C1246.3 704.84 1247.75 704.39 1248.99 703.49L1256.21 698.22L1297.23 734.58C1296.69 734.7 1296.14 734.78 1295.56 734.78ZM1188.74 732.46C1187.46 731.13 1186.67 729.33 1186.67 727.34L1186.67 667.05C1186.67 666.03 1186.84 665.05 1187.15 664.13L1229.87 695.52L1189.18 731.73C1188.95 731.93 1188.82 732.19 1188.74 732.46ZM1300.27 733.05L1300.06 732.77L1258.89 696.27L1302.15 664.73C1302.69 666.05 1303 667.5 1303 669.02L1303 727.34C1303 729.65 1301.93 731.69 1300.27 733.05Z" />
		<path id="Path 87" class="shp43" d="M1371.53 638.11L1334.09 638.11C1334.35 636.72 1334.61 635.33 1334.89 633.94L1367.62 633.94L1371.01 636.95L1373.77 633.83L1373.06 633.2C1373.33 632.87 1373.49 632.45 1373.49 631.99L1373.49 583.93C1373.49 583.47 1373.44 583.03 1373.36 582.6L1375.93 580.73L1373.47 577.36L1371.33 578.92C1370.1 577.76 1368.43 577.04 1366.6 577.04L1349.18 577.04C1349.55 575.65 1349.91 574.27 1350.27 572.88L1366.6 572.88C1372.7 572.88 1377.65 577.84 1377.65 583.93L1377.65 631.99C1377.65 635.36 1374.91 638.11 1371.53 638.11Z" />
		<path id="Path 88" class="shp44" d="M1334.09 638.11L1287.38 638.11C1284 638.11 1281.25 635.36 1281.25 631.99L1281.25 581.39C1281.25 576.7 1285.07 572.88 1289.76 572.88L1350.27 572.88C1349.91 574.27 1349.55 575.65 1349.18 577.04L1289.76 577.04C1288.65 577.04 1287.64 577.46 1286.87 578.15L1285.55 577.18L1283.08 580.54L1285.42 582.26L1285.42 631.99C1285.42 632.13 1285.43 632.27 1285.46 632.41L1284.79 633.01L1287.56 636.12L1290 633.94L1334.89 633.94C1334.61 635.33 1334.35 636.72 1334.09 638.11ZM1287.56 636.12L1284.79 633.01L1285.46 632.41L1316.31 604.96L1319.75 607.49L1290 633.94L1287.56 636.12Z" />
		<path id="Path 89" class="shp43" d="M1371.01 636.95L1367.62 633.94L1340.46 609.87C1340.8 608.52 1341.15 607.17 1341.5 605.83L1341.87 605.55L1373.06 633.2L1373.77 633.83L1371.01 636.95Z" />
		<path id="Path 90" class="shp44" d="M1340.46 609.87L1338.43 608.07L1341.5 605.83C1341.15 607.17 1340.8 608.52 1340.46 609.87Z" />
		<path id="Path 91" class="shp43" d="M1341.5 605.83C1342.05 603.7 1342.61 601.57 1343.18 599.45L1371.33 578.92L1373.47 577.36L1375.93 580.73L1373.36 582.6L1341.87 605.55L1341.5 605.83Z" />
		<path id="Path 92" class="shp44" d="M1329.46 613.1C1328.14 613.1 1326.81 612.68 1325.69 611.85L1319.75 607.49L1316.31 604.96L1285.42 582.26L1283.08 580.54L1285.55 577.18L1286.87 578.15L1328.16 608.49C1328.55 608.78 1329.01 608.92 1329.47 608.92C1329.92 608.92 1330.37 608.78 1330.76 608.5L1343.18 599.45C1342.61 601.57 1342.05 603.7 1341.5 605.83L1338.43 608.07L1333.22 611.86C1332.09 612.69 1330.78 613.1 1329.46 613.1Z" />
		<path id="Path 93" class="shp11" d="M1228.63 523.77C1230.23 524.94 1232.39 524.95 1233.99 523.78L1297.82 477.25C1295.35 474.2 1291.59 472.25 1287.37 472.25L1172.89 472.25C1169.36 472.25 1166.22 473.9 1164.19 476.47L1164.41 476.58L1228.63 523.77ZM1236.26 526.9C1234.78 527.98 1233.05 528.51 1231.32 528.51C1229.58 528.51 1227.83 527.97 1226.35 526.88L1216.6 519.71L1167.36 563.52L1167.24 563.6C1168.3 564.04 1169.46 564.29 1170.68 564.29L1291.93 564.29C1292.61 564.29 1293.28 564.2 1293.92 564.05L1244.9 520.6L1236.26 526.9ZM1213.42 517.38L1162.36 479.86C1162 480.96 1161.79 482.13 1161.79 483.35L1161.79 555.4C1161.79 557.78 1162.74 559.93 1164.26 561.53C1164.36 561.2 1164.52 560.89 1164.79 560.64L1213.42 517.38ZM1297.3 561.89L1297.56 562.23C1299.53 560.6 1300.82 558.16 1300.82 555.4L1300.82 485.7C1300.82 483.88 1300.45 482.16 1299.8 480.58L1248.1 518.27L1297.3 561.89Z" />
		<path id="Path 94" class="shp14" d="M1149.35 610.99C1150.95 612.17 1153.11 612.17 1154.72 611L1218.54 564.47C1216.08 561.43 1212.31 559.47 1208.09 559.47L1093.62 559.47C1090.09 559.47 1086.95 561.13 1084.91 563.7L1085.14 563.8L1149.35 610.99ZM1156.99 614.12C1155.51 615.2 1153.78 615.74 1152.04 615.74C1150.3 615.74 1148.56 615.19 1147.07 614.1L1137.33 606.94L1088.08 650.75L1087.96 650.82C1089.02 651.27 1090.18 651.51 1091.4 651.51L1212.65 651.51C1213.34 651.51 1214 651.42 1214.64 651.27L1165.63 607.82L1156.99 614.12ZM1134.15 604.6L1083.09 567.08C1082.72 568.18 1082.52 569.35 1082.52 570.57L1082.52 642.63C1082.52 645.01 1083.46 647.15 1084.99 648.75C1085.09 648.42 1085.24 648.11 1085.52 647.87L1134.15 604.6ZM1218.02 649.11L1218.28 649.45C1220.25 647.82 1221.54 645.39 1221.54 642.63L1221.54 572.92C1221.54 571.11 1221.17 569.38 1220.52 567.8L1168.82 605.5L1218.02 649.11ZM1324.3 472.65C1324.3 486.03 1313.46 496.88 1300.08 496.88C1286.69 496.88 1275.85 486.03 1275.85 472.65C1275.85 459.27 1286.69 448.42 1300.08 448.42C1313.46 448.42 1324.3 459.27 1324.3 472.65Z" />
		<path id="Path 95" fill-rule="evenodd" class="shp10" d="M1294.71 482.01L1292.06 482.01L1292.06 465.98L1289.36 467.63L1289.36 464.88L1292.06 463.09L1294.71 463.09L1294.71 482.01ZM1300.38 480.79C1299.46 479.84 1299.01 478.52 1299.01 476.83L1299.01 468.23C1299.01 466.53 1299.46 465.21 1300.39 464.26C1301.31 463.32 1302.65 462.85 1304.41 462.85C1306.18 462.85 1307.52 463.32 1308.44 464.26C1309.35 465.2 1309.81 466.52 1309.81 468.23L1309.81 476.83C1309.81 478.53 1309.35 479.85 1308.43 480.79C1307.51 481.74 1306.17 482.21 1304.41 482.21C1302.64 482.21 1301.29 481.74 1300.38 480.79ZM1306.48 478.95C1306.93 478.46 1307.15 477.75 1307.15 476.83L1307.15 468.23C1307.15 467.31 1306.93 466.6 1306.49 466.11C1306.05 465.62 1305.35 465.38 1304.41 465.38C1303.46 465.38 1302.77 465.62 1302.33 466.11C1301.88 466.6 1301.66 467.31 1301.66 468.23L1301.66 476.83C1301.66 477.75 1301.88 478.46 1302.33 478.95C1302.78 479.44 1303.47 479.68 1304.41 479.68C1305.34 479.68 1306.04 479.44 1306.48 478.95ZM1347.2 818.97L1180.83 818.97C1178.98 818.97 1177.47 817.47 1177.47 815.61L1177.47 766.74C1177.47 764.89 1178.98 763.38 1180.83 763.38L1347.2 763.38C1349.05 763.38 1350.56 764.89 1350.56 766.74L1350.56 815.61C1350.56 817.47 1349.05 818.97 1347.2 818.97Z" />
		<path id="Path 96" class="shp13" d="M1219.16 790.13C1219.16 797.07 1213.53 802.71 1206.58 802.71C1199.63 802.71 1193.99 797.07 1193.99 790.13C1193.99 783.18 1199.63 777.54 1206.58 777.54C1213.53 777.54 1219.16 783.18 1219.16 790.13Z" />
		<path id="Path 97" class="shp12" d="M1326.54 783.04L1237.98 783.04C1237.41 783.04 1236.94 782.58 1236.94 782C1236.94 781.43 1237.41 780.96 1237.98 780.96L1326.54 780.96C1327.12 780.96 1327.59 781.43 1327.59 782C1327.59 782.58 1327.12 783.04 1326.54 783.04ZM1277.55 793.55L1237.98 793.55C1237.41 793.55 1236.94 793.08 1236.94 792.51C1236.94 791.93 1237.41 791.46 1237.98 791.46L1277.55 791.46C1278.13 791.46 1278.6 791.93 1278.6 792.51C1278.6 793.08 1278.13 793.55 1277.55 793.55ZM1277.55 805.5L1237.98 805.5C1237.41 805.5 1236.94 805.03 1236.94 804.46C1236.94 803.88 1237.41 803.41 1237.98 803.41L1277.55 803.41C1278.13 803.41 1278.6 803.88 1278.6 804.46C1278.6 805.03 1278.13 805.5 1277.55 805.5ZM1326.54 793.55L1286.97 793.55C1286.4 793.55 1285.93 793.08 1285.93 792.51C1285.93 791.93 1286.4 791.46 1286.97 791.46L1326.54 791.46C1327.12 791.46 1327.59 791.93 1327.59 792.51C1327.59 793.08 1327.12 793.55 1326.54 793.55Z" />
		<path id="Path 98" class="shp14" d="M1302.34 867.86L1135.98 867.86C1134.12 867.86 1132.62 866.36 1132.62 864.5L1132.62 815.63C1132.62 813.77 1134.12 812.27 1135.98 812.27L1302.34 812.27C1304.2 812.27 1305.7 813.77 1305.7 815.63L1305.7 864.5C1305.7 866.36 1304.2 867.86 1302.34 867.86Z" />
		<path id="Path 99" class="shp13" d="M1174.31 839.01C1174.31 845.96 1168.67 851.6 1161.72 851.6C1154.77 851.6 1149.14 845.96 1149.14 839.01C1149.14 832.06 1154.77 826.43 1161.72 826.43C1168.67 826.43 1174.31 832.06 1174.31 839.01Z" />
		<path id="Path 100" class="shp45" d="M1281.69 831.93L1193.13 831.93C1192.55 831.93 1192.09 831.47 1192.09 830.89C1192.09 830.31 1192.55 829.85 1193.13 829.85L1281.69 829.85C1282.26 829.85 1282.73 830.31 1282.73 830.89C1282.73 831.47 1282.26 831.93 1281.69 831.93ZM1232.7 842.44L1193.13 842.44C1192.55 842.44 1192.09 841.97 1192.09 841.4C1192.09 840.82 1192.55 840.35 1193.13 840.35L1232.7 840.35C1233.28 840.35 1233.74 840.82 1233.74 841.4C1233.74 841.97 1233.28 842.44 1232.7 842.44ZM1232.7 854.39L1193.13 854.39C1192.55 854.39 1192.09 853.92 1192.09 853.35C1192.09 852.77 1192.55 852.3 1193.13 852.3L1232.7 852.3C1233.28 852.3 1233.74 852.77 1233.74 853.35C1233.74 853.92 1233.28 854.39 1232.7 854.39ZM1281.69 842.44L1242.12 842.44C1241.54 842.44 1241.08 841.97 1241.08 841.4C1241.08 840.82 1241.54 840.35 1242.12 840.35L1281.69 840.35C1282.26 840.35 1282.73 840.82 1282.73 841.4C1282.73 841.97 1282.26 842.44 1281.69 842.44Z" />
		<path id="Path 101" class="shp10" d="M380.31 479.3L381.45 729.69C381.47 733.64 378.28 736.86 374.33 736.88L225.04 737.56C221.09 737.58 217.88 734.39 217.86 730.44L216.71 480.05C216.69 476.1 219.88 472.88 223.83 472.86L373.12 472.18C377.07 472.16 380.29 475.35 380.31 479.3Z" />
		<path id="Path 102" class="shp46" d="M330.06 599.71L268.1 599.71C264.73 599.71 261.99 596.97 261.99 593.6C261.99 590.22 264.73 587.48 268.1 587.48L330.06 587.48C333.44 587.48 336.17 590.22 336.17 593.6C336.17 596.97 333.44 599.71 330.06 599.71ZM299.07 572.44C284.75 572.44 273.13 560.82 273.13 546.49C273.13 532.17 284.75 520.55 299.07 520.55C313.4 520.55 325.01 532.17 325.01 546.49C325.01 560.82 313.4 572.44 299.07 572.44Z" />
		<path id="Path 103" class="shp10" d="M308.42 539.08C308.42 544.24 304.23 548.43 299.07 548.43C293.91 548.43 289.73 544.24 289.73 539.08C289.73 533.92 293.91 529.74 299.07 529.74C304.23 529.74 308.42 533.92 308.42 539.08ZM305.44 563.25L292.71 563.25C288.57 563.25 285.21 559.9 285.21 555.76C285.21 549.97 289.91 545.28 295.69 545.28L302.74 545.28C308.37 545.28 312.93 549.84 312.93 555.47L312.93 555.76C312.93 559.9 309.57 563.25 305.44 563.25Z" />
		<path id="Path 104" class="shp46" d="M330.06 619.63L268.1 619.63C264.73 619.63 261.99 616.89 261.99 613.52C261.99 610.14 264.73 607.4 268.1 607.4L330.06 607.4C333.44 607.4 336.17 610.14 336.17 613.52C336.17 616.89 333.44 619.63 330.06 619.63Z" />
		<path id="Path 105" class="shp47" d="M324.28 658.57L278 658.57C272.4 658.57 267.86 654.03 267.86 648.43C267.86 642.83 272.4 638.29 278 638.29L324.28 638.29C329.88 638.29 334.42 642.83 334.42 648.43C334.42 654.03 329.88 658.57 324.28 658.57Z" />
		<path id="Path 106" class="shp14" d="M380.86 479.21L380.92 492.81L217.32 493.56L217.26 479.61C217.24 475.83 220.29 472.75 224.07 472.73L373.62 472.05C377.6 472.03 380.84 475.24 380.86 479.21Z" />
		<path id="Path 107" class="shp10" d="M360.66 480.09C360.37 480.09 360.14 479.86 360.14 479.57C360.14 479.29 360.37 479.05 360.66 479.05L372.93 478.99L372.93 478.99C373.22 478.99 373.45 479.23 373.45 479.51C373.45 479.8 373.22 480.04 372.93 480.04L360.66 480.09L360.66 480.09ZM360.67 483.23C360.39 483.23 360.16 483 360.15 482.71C360.15 482.42 360.38 482.19 360.67 482.19L372.94 482.13L372.95 482.13C373.23 482.13 373.46 482.36 373.47 482.65C373.47 482.94 373.24 483.17 372.95 483.17L360.68 483.23L360.67 483.23ZM360.69 486.36C360.4 486.36 360.17 486.13 360.17 485.84C360.17 485.56 360.4 485.32 360.69 485.32L372.96 485.26L372.96 485.26C373.25 485.26 373.48 485.5 373.48 485.78C373.48 486.07 373.25 486.3 372.96 486.3L360.69 486.36L360.69 486.36ZM231.92 489.41C231.65 489.41 231.39 489.31 231.19 489.11L226.71 484.68C226.15 484.12 226.15 483.22 226.7 482.66L230.96 478.36C231.37 477.95 232.03 477.95 232.44 478.35C232.85 478.76 232.85 479.42 232.45 479.83L228.64 483.66L232.65 487.63C233.06 488.04 233.06 488.7 232.66 489.11C232.46 489.31 232.19 489.41 231.92 489.41Z" />
		<path id="Path 108" class="shp14" d="M373.99 737.32L224.18 737.32C220.29 737.32 217.15 734.17 217.15 730.29L217.15 690.83L381.02 690.83L381.02 730.29C381.02 734.17 377.87 737.32 373.99 737.32Z" />
		<path id="Path 109" class="shp10" d="M332.1 710.78L266.06 710.78C265.49 710.78 265.02 710.32 265.02 709.74C265.02 709.17 265.49 708.7 266.06 708.7L332.1 708.7C332.68 708.7 333.14 709.17 333.14 709.74C333.14 710.32 332.68 710.78 332.1 710.78ZM318.71 720.79L279.45 720.79C278.87 720.79 278.41 720.32 278.41 719.75C278.41 719.17 278.87 718.71 279.45 718.71L318.71 718.71C319.29 718.71 319.76 719.17 319.76 719.75C319.76 720.32 319.29 720.79 318.71 720.79Z" />
		<path id="Path 110" class="shp48" d="M380.85 596.86L380.84 594.85L449.02 594.4C450.59 594.39 452.04 593.88 453.21 593.02C451.95 595.05 449.71 596.41 447.14 596.43L380.85 596.86ZM345.94 472.17L345.61 422.05C345.6 420.17 346.31 418.45 347.48 417.16C347.48 417.2 347.48 417.25 347.48 417.29L347.5 419.74C347.49 419.83 347.49 419.93 347.49 420.02L347.83 472.16L345.94 472.17Z" />
		<path id="Path 111" class="shp49" d="M353.91 597.04C349.95 597.04 346.74 593.85 346.71 589.89L346.07 492.97L347.97 492.96L348.59 587.86C348.62 591.82 351.84 595.01 355.8 595.01C355.81 595.01 355.83 595.01 355.84 595.01L380.84 594.85L380.85 596.86L353.95 597.04C353.94 597.04 353.93 597.04 353.91 597.04Z" />
		<path id="Path 112" class="shp50" d="M346.07 492.97L345.94 472.17L347.83 472.16L347.97 492.96L346.07 492.97Z" />
		<path id="Path 113" class="shp10" d="M449.02 594.4L355.84 595.01C351.86 595.03 348.62 591.83 348.59 587.86L347.49 420.02C347.47 416.05 350.67 412.8 354.64 412.77L447.83 412.16C451.81 412.14 455.05 415.34 455.08 419.32L456.18 587.15C456.2 591.12 453 594.37 449.02 594.4Z" />
		<path id="Path 114" class="shp11" d="M455.27 447.35L347.68 448.06L347.48 417.29C347.46 414.82 349.45 412.81 351.92 412.79L450.48 412.15C453 412.13 455.05 414.16 455.07 416.67L455.27 447.35Z" />
		<path id="Path 115" class="shp51" d="M358.59 439.94C357.39 439.94 356.41 438.97 356.41 437.77C356.4 436.56 357.37 435.58 358.57 435.57L416.3 435.19C416.31 435.19 416.31 435.19 416.32 435.19C417.52 435.19 418.49 436.16 418.5 437.36C418.51 438.57 417.54 439.55 416.33 439.56L358.6 439.94C358.6 439.94 358.59 439.94 358.59 439.94ZM358.2 424.57C357.44 424.57 356.83 423.96 356.82 423.21C356.81 422.45 357.43 421.82 358.19 421.82L379.37 421.68C379.37 421.68 379.37 421.68 379.37 421.68C380.13 421.68 380.75 422.29 380.75 423.05C380.76 423.81 380.14 424.43 379.39 424.44L358.21 424.57C358.2 424.57 358.2 424.57 358.2 424.57ZM358.2 431.75C357.44 431.75 356.83 431.14 356.82 430.38C356.81 429.62 357.43 429 358.19 428.99L379.37 428.85C379.37 428.85 379.37 428.85 379.38 428.85C380.13 428.85 380.75 429.46 380.75 430.22C380.76 430.98 380.14 431.6 379.39 431.61L358.21 431.75C358.2 431.75 358.2 431.75 358.2 431.75Z" />
		<path id="Path 116" class="shp11" d="M377.93 485.62L361.98 485.73C359.47 485.74 357.42 483.72 357.41 481.21L357.3 465.26C357.28 462.75 359.31 460.7 361.82 460.68L377.77 460.57C380.28 460.56 382.33 462.58 382.34 465.09L382.45 481.04C382.46 483.55 380.44 485.6 377.93 485.62Z" />
		<path id="Path 117" class="shp52" d="M388.96 468.95C387.73 468.95 386.73 467.96 386.72 466.72C386.71 465.48 387.71 464.47 388.95 464.46L419.85 464.26C419.85 464.26 419.86 464.26 419.86 464.26C421.1 464.26 422.1 465.25 422.11 466.49C422.11 467.73 421.12 468.74 419.87 468.75L388.98 468.95C388.97 468.95 388.97 468.95 388.96 468.95ZM386.78 476.12L386.77 476.12C386.2 476.12 385.73 475.65 385.73 475.08C385.72 474.51 386.19 474.04 386.76 474.03L413.89 473.86L413.9 473.86C414.47 473.86 414.93 474.32 414.94 474.89C414.94 475.47 414.48 475.94 413.9 475.94L386.78 476.12ZM386.82 481.79L386.81 481.79C386.24 481.79 385.77 481.33 385.77 480.76C385.76 480.18 386.23 479.71 386.8 479.71L431.03 479.42C431.05 479.42 431.08 479.42 431.1 479.42C431.61 479.42 432.07 479.91 432.08 480.45C432.08 481.03 431.62 481.5 431.04 481.5L386.82 481.79ZM419.95 475.9L419.94 475.9C419.37 475.9 418.9 475.44 418.9 474.86C418.9 474.29 419.36 473.82 419.94 473.82L447.06 473.64C447.06 473.64 447.06 473.64 447.07 473.64C447.64 473.64 448.1 474.1 448.11 474.67C448.11 475.25 447.65 475.72 447.07 475.72L419.95 475.9Z" />
		<path id="Path 118" class="shp10" d="M373.94 480.26L365.81 480.26C365.18 480.26 364.68 479.72 364.73 479.09L365.43 470.94C365.48 470.38 365.95 469.95 366.51 469.95L373.07 469.95C373.62 469.95 374.08 470.37 374.14 470.92L375.01 479.06C375.08 479.7 374.58 480.26 373.94 480.26ZM373.43 471.52L372.91 471.52L372.91 468.23C372.91 467.17 372.16 466.3 371.23 466.3L368.81 466.3C367.74 466.3 366.87 467.3 366.87 468.53L366.87 471.52L366.35 471.52L366.35 468.53C366.35 467.01 367.45 465.78 368.81 465.78L371.23 465.78C372.44 465.78 373.43 466.88 373.43 468.23L373.43 471.52Z" />
		<path id="Path 119" class="shp11" d="M372.34 473.8L367.41 473.8L367.41 472.46L372.34 472.46L372.34 473.8Z" />
		<path id="Path 120" class="shp52" d="M389.44 543.72C388.21 543.72 387.2 542.72 387.19 541.49C387.19 540.25 388.19 539.23 389.43 539.22L420.32 539.02C420.33 539.02 420.34 539.02 420.34 539.02C421.57 539.02 422.58 540.02 422.59 541.25C422.59 542.5 421.59 543.51 420.36 543.51L389.46 543.72C389.45 543.72 389.45 543.72 389.44 543.72ZM387.26 550.88L387.25 550.88C386.68 550.88 386.21 550.42 386.21 549.85C386.2 549.27 386.67 548.8 387.24 548.8L414.37 548.62L414.37 548.62C414.95 548.62 415.41 549.08 415.41 549.66C415.42 550.23 414.96 550.7 414.38 550.7L387.26 550.88ZM387.29 556.56L387.29 556.56C386.72 556.56 386.25 556.1 386.25 555.52C386.24 554.95 386.71 554.48 387.28 554.48L431.51 554.18C432.14 554.24 432.55 554.64 432.56 555.22C432.56 555.79 432.1 556.26 431.52 556.27L387.29 556.56ZM420.43 550.66L420.42 550.66C419.85 550.66 419.38 550.2 419.38 549.63C419.38 549.05 419.84 548.58 420.41 548.58L447.54 548.4L447.54 548.4C448.12 548.4 448.58 548.86 448.59 549.44C448.59 550.01 448.13 550.48 447.55 550.49L420.43 550.66Z" />
		<path id="Path 121" class="shp14" d="M377.93 560.44L361.98 560.55C359.47 560.56 357.42 558.54 357.41 556.03L357.3 540.08C357.28 537.57 359.31 535.52 361.82 535.5L377.77 535.4C380.28 535.38 382.33 537.4 382.34 539.91L382.45 555.87C382.46 558.38 380.44 560.42 377.93 560.44Z" />
		<path id="Path 122" class="shp10" d="M373.94 555.08L365.81 555.08C365.18 555.08 364.68 554.54 364.73 553.91L365.43 545.76C365.48 545.2 365.95 544.77 366.51 544.77L373.07 544.77C373.62 544.77 374.08 545.19 374.14 545.74L375.01 553.89C375.08 554.53 374.58 555.08 373.94 555.08ZM373.43 546.34L372.91 546.34L372.91 543.05C372.91 541.99 372.16 541.12 371.23 541.12L368.81 541.12C367.74 541.12 366.87 542.12 366.87 543.36L366.87 546.34L366.35 546.34L366.35 543.36C366.35 541.84 367.45 540.6 368.81 540.6L371.23 540.6C372.44 540.6 373.43 541.7 373.43 543.05L373.43 546.34Z" />
		<path id="Path 123" class="shp14" d="M372.34 548.63L367.41 548.63L367.41 547.28L372.34 547.28L372.34 548.63Z" />
		<path id="Path 124" class="shp52" d="M389.2 505.3C387.97 505.3 386.96 504.3 386.96 503.07C386.95 501.83 387.95 500.81 389.19 500.81L420.09 500.6C420.09 500.6 420.1 500.6 420.1 500.6C421.33 500.6 422.34 501.6 422.35 502.84C422.35 504.08 421.35 505.09 420.11 505.1L389.22 505.3C389.21 505.3 389.21 505.3 389.2 505.3ZM387.02 512.46L387.01 512.46C386.44 512.46 385.97 512 385.97 511.43C385.97 510.85 386.43 510.38 387.01 510.38L399.55 510.3L399.56 510.3C400.13 510.3 400.59 510.76 400.6 511.33C400.6 511.91 400.14 512.38 399.56 512.38L387.02 512.46ZM387.05 518.14L387.05 518.14C386.48 518.14 386.01 517.68 386.01 517.1C386 516.53 386.47 516.06 387.04 516.06L412.78 515.89L412.79 515.89C413.36 515.89 413.83 516.35 413.83 516.92C413.84 517.5 413.37 517.97 412.8 517.97L387.05 518.14ZM404.81 512.35L404.81 512.35C404.23 512.35 403.77 511.88 403.76 511.31C403.76 510.74 404.22 510.27 404.8 510.26L429.85 510.1C429.87 510.1 429.89 510.1 429.9 510.1C430.45 510.1 430.89 510.58 430.9 511.13C430.9 511.71 430.44 512.18 429.86 512.18L404.81 512.35ZM434.53 512.15L434.52 512.15C433.95 512.15 433.48 511.69 433.48 511.12C433.47 510.54 433.94 510.07 434.51 510.07L447.06 509.99C447.63 510.07 448.1 510.45 448.11 511.02C448.11 511.6 447.65 512.06 447.07 512.07L434.53 512.15Z" />
		<path id="Path 125" class="shp47" d="M377.93 522.02L361.98 522.13C359.47 522.14 357.42 520.12 357.41 517.61L357.3 501.66C357.28 499.15 359.31 497.1 361.82 497.08L377.77 496.98C380.28 496.96 382.33 498.98 382.34 501.49L382.45 517.44C382.46 519.96 380.44 522 377.93 522.02Z" />
		<path id="Path 126" class="shp10" d="M373.94 516.66L365.81 516.66C365.18 516.66 364.68 516.12 364.73 515.49L365.43 507.35C365.48 506.79 365.95 506.36 366.51 506.36L373.07 506.36C373.62 506.36 374.08 506.77 374.14 507.32L375.01 515.47C375.08 516.11 374.58 516.66 373.94 516.66ZM373.43 507.92L372.91 507.92L372.91 504.64C372.91 503.57 372.16 502.7 371.23 502.7L368.81 502.7C367.74 502.7 366.87 503.7 366.87 504.94L366.87 507.92L366.35 507.92L366.35 504.94C366.35 503.41 367.45 502.18 368.81 502.18L371.23 502.18C372.44 502.18 373.43 503.28 373.43 504.64L373.43 507.92Z" />
		<path id="Path 127" class="shp11" d="M372.34 510.21L367.41 510.21L367.41 508.86L372.34 508.86L372.34 510.21Z" />
		<path id="Path 128" class="shp47" d="M413.24 579.73L391.76 579.73C389.86 579.73 388.32 578.19 388.32 576.28C388.32 574.38 389.86 572.84 391.76 572.84L413.24 572.84C415.14 572.84 416.69 574.38 416.69 576.28C416.69 578.19 415.14 579.73 413.24 579.73Z" />
		<path id="Path 129" class="shp51" d="M451.22 422.06C450.95 422.06 450.68 421.96 450.48 421.75L449.07 420.35L450.55 418.87L451.95 420.28C452.36 420.69 452.36 421.35 451.95 421.75C451.75 421.96 451.48 422.06 451.22 422.06ZM447.6 418.87L446.19 417.46C445.79 417.06 445.79 416.4 446.19 415.99C446.4 415.79 446.66 415.69 446.93 415.69C447.2 415.69 447.46 415.79 447.67 415.99L449.07 417.4L447.6 418.87ZM446.93 422.06C446.66 422.06 446.4 421.96 446.19 421.75C445.79 421.35 445.79 420.69 446.19 420.28L447.6 418.87L449.07 417.4L450.48 415.99C450.68 415.79 450.95 415.69 451.22 415.69C451.48 415.69 451.75 415.79 451.95 415.99C452.36 416.4 452.36 417.06 451.95 417.46L450.55 418.87L449.07 420.35L447.67 421.75C447.46 421.96 447.2 422.06 446.93 422.06Z" />
		<path id="Path 130" class="shp11" d="M407.58 647.59C407.58 660.49 397.12 670.94 384.22 670.94C371.32 670.94 360.86 660.49 360.86 647.59C360.86 634.69 371.32 624.23 384.22 624.23C397.12 624.23 407.58 634.69 407.58 647.59Z" />
		<path id="Path 131" class="shp10" d="M396.08 649.67L372.35 649.67C371.2 649.67 370.27 648.74 370.27 647.59C370.27 646.43 371.2 645.5 372.35 645.5L396.08 645.5C397.24 645.5 398.17 646.43 398.17 647.59C398.17 648.74 397.24 649.67 396.08 649.67ZM384.22 661.53C383.07 661.53 382.14 660.6 382.14 659.45L382.14 635.72C382.14 634.57 383.07 633.64 384.22 633.64C385.37 633.64 386.3 634.57 386.3 635.72L386.3 659.45C386.3 660.6 385.37 661.53 384.22 661.53ZM395.92 164.82L395.92 263.85L395.92 285.37C395.92 289.33 399.91 292.54 404.83 292.54L597.77 292.54C602.69 292.54 606.69 289.33 606.69 285.37L606.69 151.25C606.69 147.3 602.69 144.09 597.77 144.09L404.83 144.09C399.91 144.09 395.92 147.3 395.92 151.25L395.92 164.82Z" />
		<path id="Path 132" class="shp41" d="M419.01 231.23C419.01 216.32 429.8 203.96 443.99 201.44L442.81 194.51C422.53 197.94 408.87 217.17 412.31 237.45L419.46 236.24C419.19 234.61 419.01 232.94 419.01 231.23Z" />
		<path id="Path 133" class="shp10" d="M486.27 232.54C486.35 230.06 486.19 227.55 485.76 225.01C486.19 227.55 486.35 230.06 486.27 232.54Z" />
		<path id="Path 134" class="shp13" d="M485.76 225.01C482.33 204.73 463.09 191.07 442.81 194.51L443.99 201.44C445.71 201.13 447.48 200.95 449.3 200.95C466.02 200.95 479.58 214.51 479.58 231.23C479.58 246.32 468.54 258.8 454.09 261.1L455.25 267.96C470.47 265.38 481.95 253.92 485.3 239.79C485.85 237.44 486.18 235.01 486.27 232.54C486.35 230.06 486.19 227.55 485.76 225.01Z" />
		<path id="Path 135" class="shp11" d="M395.92 172.34L395.92 151.25C395.92 147.3 399.91 144.09 404.83 144.09L597.77 144.09C602.69 144.09 606.69 147.3 606.69 151.25L606.69 171.42" />
		<path id="Path 136" fill-rule="evenodd" class="shp10" d="M411.13 163.48C408.73 163.48 406.78 161.46 406.78 158.97C406.78 156.48 408.73 154.46 411.13 154.46C413.53 154.46 415.49 156.48 415.49 158.97C415.49 161.46 413.53 163.48 411.13 163.48ZM411.13 156.54C409.88 156.54 408.86 157.63 408.86 158.97C408.86 160.31 409.88 161.4 411.13 161.4C412.38 161.4 413.4 160.31 413.4 158.97C413.4 157.63 412.38 156.54 411.13 156.54ZM423.56 163.48C421.16 163.48 419.21 161.46 419.21 158.97C419.21 156.48 421.16 154.46 423.56 154.46C425.96 154.46 427.92 156.48 427.92 158.97C427.92 161.46 425.96 163.48 423.56 163.48ZM423.56 156.54C422.31 156.54 421.29 157.63 421.29 158.97C421.29 160.31 422.31 161.4 423.56 161.4C424.81 161.4 425.83 160.31 425.83 158.97C425.83 157.63 424.81 156.54 423.56 156.54ZM435.76 163.48C433.36 163.48 431.4 161.46 431.4 158.97C431.4 156.48 433.36 154.46 435.76 154.46C438.16 154.46 440.11 156.48 440.11 158.97C440.11 161.46 438.16 163.48 435.76 163.48ZM435.76 156.54C434.51 156.54 433.49 157.63 433.49 158.97C433.49 160.31 434.51 161.4 435.76 161.4C437.01 161.4 438.03 160.31 438.03 158.97C438.03 157.63 437.01 156.54 435.76 156.54Z" />
		<path id="Path 137" class="shp40" d="M574.64 205.78L502.83 205.78C502.25 205.78 501.79 205.31 501.79 204.74C501.79 204.16 502.25 203.7 502.83 203.7L574.64 203.7C575.22 203.7 575.68 204.16 575.68 204.74C575.68 205.31 575.22 205.78 574.64 205.78ZM538.74 248.35L502.83 248.35C502.25 248.35 501.79 247.88 501.79 247.3C501.79 246.73 502.25 246.26 502.83 246.26L538.74 246.26C539.31 246.26 539.78 246.73 539.78 247.3C539.78 247.88 539.31 248.35 538.74 248.35ZM529.64 219.35L502.83 219.35C502.25 219.35 501.79 218.88 501.79 218.31C501.79 217.73 502.25 217.26 502.83 217.26L529.64 217.26C530.21 217.26 530.68 217.73 530.68 218.31C530.68 218.88 530.21 219.35 529.64 219.35ZM574.64 219.35L547.83 219.35C547.26 219.35 546.79 218.88 546.79 218.31C546.79 217.73 547.26 217.26 547.83 217.26L574.64 217.26C575.22 217.26 575.68 217.73 575.68 218.31C575.68 218.88 575.22 219.35 574.64 219.35ZM529.64 234.87L502.83 234.87C502.25 234.87 501.79 234.41 501.79 233.83C501.79 233.26 502.25 232.79 502.83 232.79L529.64 232.79C530.21 232.79 530.68 233.26 530.68 233.83C530.68 234.41 530.21 234.87 529.64 234.87ZM574.64 234.87L547.83 234.87C547.26 234.87 546.79 234.41 546.79 233.83C546.79 233.26 547.26 232.79 547.83 232.79L574.64 232.79C575.22 232.79 575.68 233.26 575.68 233.83C575.68 234.41 575.22 234.87 574.64 234.87Z" />
		<path id="Path 138" class="shp10" d="M448.5 377.99L284.54 377.99C280.36 377.99 276.97 374.45 276.97 370.09L276.97 237.19L276.97 222.23C276.97 217.87 280.36 214.33 284.54 214.33L448.5 214.33C452.69 214.33 456.08 217.87 456.08 222.23L456.08 370.09C456.08 374.45 452.69 377.99 448.5 377.99ZM448.5 377.99L284.54 377.99C280.36 377.99 276.97 374.45 276.97 370.09L276.97 237.19L276.97 222.23C276.97 217.87 280.36 214.33 284.54 214.33L448.5 214.33C452.69 214.33 456.08 217.87 456.08 222.23L456.08 370.09C456.08 374.45 452.69 377.99 448.5 377.99Z" />
		<path id="Path 139" class="shp14" d="M276.97 238.34L276.97 220.42C276.97 217.06 280.36 214.33 284.54 214.33L448.5 214.33C452.69 214.33 456.08 217.06 456.08 220.42L456.08 237.56" />
		<path id="Path 140" fill-rule="evenodd" class="shp10" d="M289.9 230.97C287.77 230.97 286.04 229.18 286.04 226.98C286.04 224.78 287.77 222.99 289.9 222.99C292.02 222.99 293.75 224.78 293.75 226.98C293.75 229.18 292.02 230.97 289.9 230.97ZM289.9 225.07C288.92 225.07 288.12 225.93 288.12 226.98C288.12 228.03 288.92 228.88 289.9 228.88C290.87 228.88 291.67 228.03 291.67 226.98C291.67 225.93 290.87 225.07 289.9 225.07ZM300.46 230.97C298.33 230.97 296.6 229.18 296.6 226.98C296.6 224.78 298.33 222.99 300.46 222.99C302.59 222.99 304.32 224.78 304.32 226.98C304.32 229.18 302.59 230.97 300.46 230.97ZM300.46 225.07C299.48 225.07 298.69 225.93 298.69 226.98C298.69 228.03 299.48 228.88 300.46 228.88C301.44 228.88 302.23 228.03 302.23 226.98C302.23 225.93 301.44 225.07 300.46 225.07ZM310.82 230.97C308.7 230.97 306.97 229.18 306.97 226.98C306.97 224.78 308.7 222.99 310.82 222.99C312.95 222.99 314.68 224.78 314.68 226.98C314.68 229.18 312.95 230.97 310.82 230.97ZM310.82 225.07C309.85 225.07 309.05 225.93 309.05 226.98C309.05 228.03 309.85 228.88 310.82 228.88C311.8 228.88 312.6 228.03 312.6 226.98C312.6 225.93 311.8 225.07 310.82 225.07Z" />
		<path id="Path 141" fill-rule="evenodd" class="shp53" d="M441.7 367.86L291.35 367.86C287.31 367.86 284.01 364.56 284.01 360.52L284.01 255.98C284.01 251.94 287.31 248.65 291.35 248.65L441.7 248.65C445.74 248.65 449.03 251.94 449.03 255.98L449.03 360.52C449.03 364.56 445.74 367.86 441.7 367.86ZM291.35 250.73C288.45 250.73 286.1 253.09 286.1 255.98L286.1 360.52C286.1 363.42 288.45 365.77 291.35 365.77L441.7 365.77C444.59 365.77 446.95 363.42 446.95 360.52L446.95 255.98C446.95 253.09 444.59 250.73 441.7 250.73L291.35 250.73Z" />
		<path id="Path 142" class="shp54" d="M345.99 344.82L305.59 344.82L305.59 277.14L306.52 277.14L345.99 277.14L306.52 277.14L305.59 277.14L305.59 293.53L345.99 293.53L345.99 344.82Z" />
		<path id="Path 143" class="shp55" d="M345.99 293.53L305.59 293.53L305.59 277.14L306.52 277.14L345.99 277.14L345.99 293.53Z" />
		<path id="Path 144" class="shp56" d="M431.93 314.68L367.28 314.68L367.28 272.39L431.93 272.39L431.93 273.36L431.93 314.68Z" />
		<path id="Path 145" class="shp54" d="M431.93 346.95L367.28 346.95L367.28 325.81L431.93 325.81L431.93 326.29L431.93 346.95Z" />
		<path id="Path 146" class="shp41" d="M465.51 325.39C465.51 308.39 477.81 294.29 493.99 291.42L492.65 283.51C469.52 287.43 453.95 309.36 457.86 332.49L466.02 331.1C465.71 329.24 465.51 327.34 465.51 325.39Z" />
		<path id="Path 147" class="shp10" d="M542.2 326.88C542.29 324.06 542.11 321.19 541.62 318.3C542.11 321.19 542.29 324.06 542.2 326.88Z" />
		<path id="Path 148" class="shp14" d="M500.04 359.92C482.92 359.92 468.75 347.45 466.02 331.1L457.86 332.49C461.78 355.61 483.71 371.19 506.84 367.27L505.51 359.45C503.72 359.73 501.91 359.92 500.04 359.92Z" />
		<path id="Path 149" class="shp13" d="M541.62 318.3C537.7 295.17 515.77 279.59 492.65 283.51L493.99 291.42C495.96 291.07 497.97 290.86 500.04 290.86C519.11 290.86 534.58 306.32 534.58 325.39C534.58 342.6 521.98 356.82 505.51 359.45L506.84 367.27C524.18 364.33 537.28 351.26 541.09 335.15C541.72 332.47 542.1 329.7 542.2 326.88C542.29 324.06 542.11 321.19 541.62 318.3Z" />
	</g>
</svg>