<?xml version="1.0" standalone="no"?><!DOCTYPE svg PUBLIC "-//W3C//DTD SVG 1.1//EN" "http://www.w3.org/Graphics/SVG/1.1/DTD/svg11.dtd"><svg t="1608089898178" class="icon" viewBox="0 0 1024 1024" version="1.1" xmlns="http://www.w3.org/2000/svg" p-id="5276" xmlns:xlink="http://www.w3.org/1999/xlink" width="200" height="200"><defs><style type="text/css"></style></defs><path d="M510.171429 0.292571A509.257143 509.257143 0 0 0 0.329143 510.208c0 282.112 229.888 509.915429 509.915428 509.915429 282.112 0 509.915429-229.888 509.915429-509.915429A509.257143 509.257143 0 0 0 510.171429 0.292571z m0 957.110858c-246.564571 0-447.195429-200.594286-447.195429-447.195429 0-246.601143 200.630857-447.232 447.232-447.232 246.601143 0 447.195429 200.630857 447.195429 447.232 0 246.601143-200.594286 447.195429-447.195429 447.195429z m10.496-311.369143c16.713143 0 31.341714-14.628571 31.341714-31.341715V238.518857c0-16.713143-14.628571-31.341714-31.341714-31.341714-16.749714 0-31.378286 14.628571-31.378286 31.341714v376.173714c0 16.713143 14.628571 31.341714 31.378286 31.341715z m-29.257143 85.686857a41.252571 41.252571 0 0 0-12.544 29.257143c0 10.459429 4.169143 20.882286 12.544 29.257143 8.338286 8.374857 18.797714 12.544 29.257143 12.544 10.422857 0 20.882286-4.169143 29.257142-12.544 8.338286-8.374857 12.507429-18.797714 12.507429-29.257143 0-10.459429-4.169143-20.882286-12.507429-29.257143-14.628571-14.628571-43.885714-14.628571-58.514285 0z" p-id="5277" fill="#2c2c2c"></path></svg>