<?xml version="1.0" standalone="no"?><!DOCTYPE svg PUBLIC "-//W3C//DTD SVG 1.1//EN" "http://www.w3.org/Graphics/SVG/1.1/DTD/svg11.dtd"><svg t="1608089865828" class="icon" viewBox="0 0 1025 1024" version="1.1" xmlns="http://www.w3.org/2000/svg" p-id="3768" xmlns:xlink="http://www.w3.org/1999/xlink" width="200.1953125" height="200"><defs><style type="text/css"></style></defs><path d="M1014.64 485.335l-170.66-213.33a42.662 42.662 0 0 0-33.32-16.015c-4.72 0-9.493 0.788-14.121 2.416-17.1 5.99-28.539 22.129-28.539 40.254v128H426.67c-47.124 0-85.33 38.195-85.33 85.34 0 47.124 38.206 85.33 85.33 85.33H768v127.99c0 18.124 11.438 34.273 28.539 40.274a42.77 42.77 0 0 0 14.12 2.406 42.694 42.694 0 0 0 33.322-16.015l170.66-213.34c12.482-15.586 12.482-37.725 0-53.31zM597.34 853.33L256 853.32c-0.225 0-0.44 0.01-0.666 0.01-46.755 0-84.664-38.206-84.664-85.34V256h0.01c0-0.225-0.01-0.45-0.01-0.666 0-46.755 38.206-84.664 85.33-84.664h341.34c47.125 0 85.32-38.205 85.32-85.34S644.465 0 597.34 0H170.67C76.41 0 0 76.41 0 170.67v682.66C0 947.579 76.41 1024 170.67 1024h426.67c47.125 0 85.32-38.205 85.32-85.34s-38.195-85.33-85.32-85.33z m0 0" p-id="3769" fill="#2c2c2c"></path></svg>