<?xml version="1.0" standalone="no"?><!DOCTYPE svg PUBLIC "-//W3C//DTD SVG 1.1//EN" "http://www.w3.org/Graphics/SVG/1.1/DTD/svg11.dtd"><svg class="icon" width="200px" height="200.00px" viewBox="0 0 1024 1024" version="1.1" xmlns="http://www.w3.org/2000/svg"><path fill="#bcabbc" d="M750.436352 433.430528l0-50.522112c0-131.745792-107.188224-238.934016-238.936064-238.934016-131.74784 0-238.936064 107.188224-238.936064 238.934016l0 50.522112-39.206912 0 0 447.592448 556.003328 0L789.36064 433.430528 750.436352 433.430528zM315.748352 382.906368c0-107.941888 87.812096-195.751936 195.751936-195.751936 107.933696 0 195.751936 87.810048 195.751936 195.751936l0 50.522112L315.748352 433.42848 315.748352 382.906368zM276.543488 837.838848 276.543488 476.966912l39.206912 0 0-0.352256 391.503872 0 0 0.352256 38.926336 0 0 360.871936L276.543488 837.838848z" /></svg>