<?xml version="1.0" standalone="no"?><!DOCTYPE svg PUBLIC "-//W3C//DTD SVG 1.1//EN" "http://www.w3.org/Graphics/SVG/1.1/DTD/svg11.dtd"><svg t="1608081844335" class="icon" viewBox="0 0 1024 1024" version="1.1" xmlns="http://www.w3.org/2000/svg" p-id="4633" xmlns:xlink="http://www.w3.org/1999/xlink" width="200" height="200"><defs><style type="text/css"></style></defs><path d="M929.0101333333333 574.9621333333333h-354.4458666666667v354.5024c0 34.54613333333333-28.018133333333328 62.536533333333324-62.56533333333334 62.536533333333324-34.54613333333333 0-62.56426666666667-27.990399999999998-62.56426666666667-62.536533333333324v-354.5024h-354.44800000000004c-34.574933333333334 0-62.56426666666667-27.990399999999998-62.56426666666667-62.536533333333324 0-34.53333333333333 27.99253333333333-62.536533333333324 62.56426666666667-62.536533333333324h354.4458666666667v-354.5024c0-34.53333333333333 28.018133333333328-62.536533333333324 62.56426666666667-62.536533333333324 34.5472 0 62.56533333333334 28.004266666666666 62.56533333333334 62.536533333333324v354.50346666666667h354.4458666666667c34.574933333333334 0 62.56533333333334 28.00213333333333 62.56533333333334 62.534400000000005-0.0010666666666666667 34.54613333333333-27.990399999999998 62.534400000000005-62.56533333333334 62.534400000000005z" fill="#ffffff" p-id="4634"></path></svg>