<?xml version="1.0"?>
<svg xmlns="http://www.w3.org/2000/svg" id="Layer_1" data-name="Layer 1" viewBox="0 0 64 64"><title>Icons8 RSL Colored Part 10</title><path d="M22,14l1.29,4.83-9.66,2.59-1.29-4.83A5,5,0,1,1,22,14Z" style="fill:#72caaf;"/><path d="M25.88,28.46l6.47,24.15a5,5,0,0,1-9.66,2.59L16.22,31.05Z" style="fill:#72caaf;"/><path d="M41.31,8.8l6.47,24.15-9.66,2.59L31.65,11.39A5,5,0,1,1,41.31,8.8Z" style="fill:#f9dd8f;"/><path d="M40.71,45.19l9.66-2.59,1.29,4.83A5,5,0,0,1,42,50Z" style="fill:#f9dd8f;"/><path d="M32.95,16.22l2.59,9.66L11.39,32.35A5,5,0,0,1,8.8,22.69Z" style="fill:#85cbf8;"/><path d="M53.56,15.87A5,5,0,0,1,50,22l-4.83,1.29-2.59-9.66,4.83-1.29A5,5,0,0,1,53.56,15.87Z" style="fill:#85cbf8;"/><path d="M14,42l4.83-1.29,2.59,9.66-4.83,1.29A5,5,0,0,1,14,42Z" style="fill:#ed7899;"/><path d="M58.74,35.19a5,5,0,0,1-3.54,6.12L31.05,47.78l-2.59-9.66,24.15-6.47A5,5,0,0,1,58.74,35.19Z" style="fill:#ed7899;"/><path d="M59.7,34.93a6,6,0,0,0-7.35-4.24l-3.86,1L46.42,24l3.86-1a6,6,0,1,0-3.11-11.59l-3.86,1-1-3.86a6,6,0,1,0-11.59,3.11l1,3.86L24,17.58l-1-3.86a6,6,0,0,0-11.59,3.11l1,3.86-3.86,1a6,6,0,1,0,3.11,11.59l3.86-1L17.58,40l-3.86,1a6,6,0,1,0,3.11,11.59l3.86-1,1,3.86a6,6,0,0,0,11.59-3.11l-1-3.86L40,46.42l1,3.86a6,6,0,0,0,11.59-3.11l-1-3.86,3.86-1a6,6,0,0,0,4.24-7.35Zm-12-21.63A4,4,0,1,1,49.77,21l-3.86,1-1.4-5.21-.67-2.51ZM35.45,6.23a4,4,0,0,1,4.9,2.83l1.29,4.83h0L42.48,17l.19.71s0,0,0,0l.52,1.93v0l3.36,12.54-7.73,2.07L36.5,25.62h0L34.76,19.1l-2.14-8A4,4,0,0,1,35.45,6.23ZM13.3,16.31a4,4,0,0,1,2.83-4.9A4,4,0,0,1,21,14.23l1,3.86-5.21,1.4-2.51.67ZM11.13,31.38a4,4,0,0,1-2.07-7.73l4.83-1.29h0L17,21.52l15.21-4.07L32.91,20l.1.37s0,0,0,0l.52,1.93v0l.77,2.88L25.62,27.5h0l-7.76,2.08ZM16.3,50.7A4,4,0,0,1,14.23,43l3.86-1,.48,1.8.29,1.09s0,0,0,0l.52,1.93v0l.77,2.88ZM31,55.91a4,4,0,0,1-7.33-1L20.46,43l-.69-2.58h0l-2.33-8.69,1.43-.38,6.29-1.69,3.36,12.54s0,0,0,0L29,44.18v0l2.33,8.68A4,4,0,0,1,31,55.91ZM27.1,29.17l7.73-2.07,2.07,7.73L29.17,36.9ZM49.66,43.83l1,3.86A4,4,0,0,1,43,49.77l-1-3.86,1.8-.48Zm7.71-5.35a4,4,0,0,1-2.44,1.87L43,43.54l-2.58.69h0l-8.69,2.33-2.07-7.73,23.18-6.21a4,4,0,0,1,4.51,5.86Z" style="fill:#8d6c9f;"/><path d="M16,45.61a1,1,0,1,0-1.93.52l.52,1.93a1,1,0,0,0,1.93-.52Z" style="fill:#8d6c9f;"/><path d="M35.29,40.44a1,1,0,1,0-1.93.52l.52,1.93a1,1,0,1,0,1.93-.52Z" style="fill:#8d6c9f;"/><path d="M40.12,39.14a1,1,0,1,0-1.93.52l.52,1.93a1,1,0,0,0,1.93-.52Z" style="fill:#8d6c9f;"/><path d="M45,37.85a1,1,0,0,0-1.93.52l.52,1.93a1,1,0,1,0,1.93-.52Z" style="fill:#8d6c9f;"/><path d="M49.78,36.55a1,1,0,1,0-1.93.52L48.37,39a1,1,0,1,0,1.93-.52Z" style="fill:#8d6c9f;"/><path d="M54.61,35.26a1,1,0,1,0-1.93.52l.52,1.93a1,1,0,0,0,1.93-.52Z" style="fill:#8d6c9f;"/><path d="M10.8,26.29a1,1,0,1,0-1.93.52l.52,1.93a1,1,0,0,0,1.93-.52Z" style="fill:#8d6c9f;"/><path d="M23.87,24.86a1,1,0,0,0,1.93-.52l-.52-1.93a1,1,0,1,0-1.93.52Z" style="fill:#8d6c9f;"/><path d="M28.7,23.57A1,1,0,1,0,30.63,23l-.52-1.93a1,1,0,0,0-1.93.52Z" style="fill:#8d6c9f;"/><path d="M48,18.39A1,1,0,0,0,50,17.87l-.52-1.93a1,1,0,0,0-1.93.52Z" style="fill:#8d6c9f;"/><path d="M16.14,26.93,15.63,25a1,1,0,1,0-1.93.52l.52,1.93a1,1,0,0,0,1.93-.52Z" style="fill:#8d6c9f;"/><path d="M19,26.15A1,1,0,0,0,21,25.64l-.52-1.93a1,1,0,0,0-1.93.52Z" style="fill:#8d6c9f;"/></svg>
